<svg xmlns="http://www.w3.org/2000/svg" xmlns:xlink="http://www.w3.org/1999/xlink" width="893.868" height="523.833" viewBox="0 0 893.868 523.833"><defs><clipPath id="a"><rect width="155" height="153" fill="none"/></clipPath></defs><g transform="translate(-161.132 -2842.167)"><path d="M2624.609,3249.344s-81.307-78.511-62.544-158.254,76.616-90.688,125.087-114.142,32.757-23.137,77.509-51.728,95.582-13.587,121.824,22.376,101.279,103.232,157.874,143.495,8.672,158.254,8.672,158.254Z" transform="translate(-2042.254 116.656)" fill="rgba(228,215,251,0.69)"/><path d="M2646.306,3379.732S2538.006,3270.5,2563,3159.561s166.616-158.8,166.616-158.8,50.3-27.524,141.051-44.808c90.189-7.614,183.5-28.76,218.457,21.273s27.975,76.287,103.36,132.3,24.483,270.2,24.483,270.2Z" transform="translate(-2398.122 -13.732)" fill="rgba(208,196,229,0.69)"/><g transform="translate(248.46 3013.042)"><g transform="translate(90.72 0.006)"><g transform="translate(84.393)"><path d="M190.36,22.359s6.27-19.152-10.967-21.58C167.207-1.49,156.411,1.133,151.885,10s-.3,36.279,13.053,49.954c14.273,14.626,32.729,26.459,54.138,19.323s28.374-19.323,30.29-27.508-4.172-19.847-19.494-20.189-24.19,2.611-32.2.354S190.36,22.359,190.36,22.359Z" transform="translate(-150.136 -0.006)" fill="#2f2d44"/><path d="M159.161,15.911s3.172-5.111,3.7-5.721c-3.477,1.476-7.307,6.27-7.136,10.881a12.477,12.477,0,0,0,3.574,7.746Z" transform="translate(-148.909 2.233)" fill="#171826"/><path d="M156.43,21.879s3.477,37.767,31.339,43.513c23.08,4.758,41.427,0,45.611-11.32,3.733-10.1-2.611-17.408-7.661-19.494s-18.969,4.172-32.9-.866-9.222-14.1-9.222-14.1Z" transform="translate(-148.752 4.304)" fill="#171826"/></g><g transform="translate(0 53.399)"><g transform="translate(19.39)"><path d="M100.01,61.4s23.446,7.478,27.911,13.077c2.916,3.66,3.66,8.527-.171,12.016s-10.784-1.11-13.223-2.964L97.838,71.586C97.838,71.6,94.532,62.6,100.01,61.4Z" transform="translate(-96.849 -39.906)" fill="#f09087"/><path d="M113.323,90.013s20.762,16.773,32.9,13.577c12.8-6.673,21.787-26.276,23.483-34.108S167.083,43.011,158.361,43.8c-2.867.256-18.933,36.95-18.933,36.95l-20.1-7.051S112.152,82.048,113.323,90.013Z" transform="translate(-93.256 -43.78)" fill="#d3333b"/></g><g transform="translate(0 12.564)"><path d="M97.112,59.45a35.231,35.231,0,0,1-5.807,3.684c-2.22.988-10.2,4.111-10.345,6.234-.232,3.44,5.245-1.134,9.491-1.988s4.819,3.818,7.8,2.977,4.538-2.4,3.684-5.245S97.112,59.45,97.112,59.45Z" transform="translate(-80.954 -52.899)" fill="#f09087"/><path d="M102.914,67.06s0-6.99-1.2-8.515-9.869-1.732-9.869-1.732-2.391-3.038-3.477-2.708-.756,2.928.976,4.88,5.965.647,5.965.647.439,4.77,1.622,5.965C98.144,66.779,102.914,67.06,102.914,67.06Z" transform="translate(-79.46 -54.08)" fill="#f7ab9d"/><path d="M104.536,69.151c.11,2.171-5.1,4.66-6.722,4.66h-.293c-1.683-.024-4.514-.329-5.026-2.171a2.83,2.83,0,0,1-2.928-2.391c-1.2-.647-2.281-1.305-1.622-2.928s2.928-2.281,4.66-1.732,1.208,1.842,1.208,1.842,1.72-.537,1.72,1.805v.037c1.2-2.6,6.941-4.233,6.941-4.233S104.426,66.98,104.536,69.151Z" transform="translate(-79.461 -51.889)" fill="#f7ab9d"/><path d="M103.131,69.149c.11,2.171-5.1,4.66-6.722,4.66h-.293a3.766,3.766,0,0,1-1.879-2.659,4.4,4.4,0,0,0,1.415.439c.976.159,2.33-.927,1.683-2.062s-3.2-1.244-3.2-1.244c1.2-2.6,6.941-4.233,6.941-4.233S103.021,66.978,103.131,69.149Z" transform="translate(-78.055 -51.887)" fill="#f09087"/></g></g><g transform="translate(55.78 122.517)"><g transform="translate(27.545)"><path d="M233.859,136.863c-.671,6.124-4.721,19.628-9.8,34.779h0c-5.319,15.883-11.735,33.571-16.517,46.5-3.782,10.223-5.4,23.678-8.149,38.56s-24.288,72.851-24.288,72.851L164.655,321.8l-3.111-2.318-12.284-9.112L172.365,234l19.4-103.421,2.928-15.639L226.8,100.45C226.808,100.438,235.81,118.846,233.859,136.863Z" transform="translate(-149.26 -100.438)" fill="#4c5d46"/><path d="M220.017,133.887s-20.189,58.664-25.41,75.9-8.71,33.071-12.882,49.783c-3.208,12.809-14.285,42.293-19.274,55.358l-3.111-2.318c10.906-19.994,25.849-74.608,27.789-85.245,2.086-11.491,30.985-95.736,30.985-95.736Z" transform="translate(-147.044 -93.582)" fill="#384936"/><path d="M226.2,136.866c-.671,6.124-4.721,19.628-9.8,34.779-2.074-8.246-3.611-22.446-10.942-39.853-5.611.354-14.407-.427-21.36-1.22l2.928-15.639,32.107-14.492C219.147,100.44,228.15,118.848,226.2,136.866Z" transform="translate(-141.599 -100.44)" fill="#384936"/></g><g transform="translate(0 209.8)"><path d="M180.074,291.193l-53.394-1.415a15,15,0,0,1,1.708-5.77,8.444,8.444,0,0,1,3.769-3.635c5.087-2.354,22.068-7.832,22.068-7.832s6.221-2.1,19.628,11.467A72.755,72.755,0,0,1,180.074,291.193Z" transform="translate(-126.68 -272.424)" fill="#d3333b"/><path d="M180.074,289.105,126.68,287.69a15,15,0,0,1,1.708-5.77h45.465A72.75,72.75,0,0,1,180.074,289.105Z" transform="translate(-126.68 -270.336)" fill="#fff"/></g></g><g transform="translate(148.991 121.773)"><path d="M258.973,237.493c-.525,8.612-9.405,91.65-9.405,91.65l-7.844-5-3.025-1.927L219.68,310.1s7.173-57.456,6.917-86.709c-2.1-37.4-11.833-73.3-18.1-93.1-3.135-9.905-5.4-15.773-5.4-15.773l16.407-7.478,13.37-6.1,2.415-1.11s2.83,2.232,6.453,5.636c5.77,5.428,13.541,13.846,15.151,21.055,2.611,11.747-2.354,83.562-2.354,83.562S259.5,228.881,258.973,237.493Z" transform="translate(-203.09 -99.83)" fill="#4c5d46"/><path d="M241.734,105.464c-3.843,4.88-9.051,10.711-13.833,14.273-5.233,3.891-13.394,7.868-19.4,10.552-3.135-9.905-5.4-15.773-5.4-15.773L235.293,99.84C235.28,99.828,238.111,102.048,241.734,105.464Z" transform="translate(-203.088 -99.828)" fill="#384936"/><path d="M246.878,260.532c-.708,14.212-6.807,54.834-8.112,63.409l-3.025-1.927c1.537-8.6,7.575-43.123,8.259-56.785.756-15,1.744-34.34-.927-49.478a23.389,23.389,0,0,1-.366-4.013c-.134-14-3.355-68.655-6.795-85.416C222.2,125.2,217.857,114.7,216.54,106.839l13.37-6.1c2.964,6.343,8.185,17.835,9.649,22.97,1.891,6.6,4.623,62.568,4.953,84.721a69.144,69.144,0,0,0,.915,10.162C247.061,228.718,247.549,246.845,246.878,260.532Z" transform="translate(-200.133 -99.63)" fill="#384936"/><path d="M225.63,198.015c.354-.744,11.747-1.049,12.8.781s-3.391,19.847-6.526,17.749S223.813,201.931,225.63,198.015Z" transform="translate(-198.22 -78.369)" fill="#384936"/></g><g transform="translate(142.074 331.975)"><path d="M250.814,291.255,197.42,289.84a15,15,0,0,1,1.708-5.77,8.444,8.444,0,0,1,3.769-3.635c5.087-2.354,18.018-8.222,18.018-8.222s10.271-1.708,23.678,11.857A74.4,74.4,0,0,1,250.814,291.255Z" transform="translate(-197.42 -272.143)" fill="#ef515f"/><path d="M250.814,289.105,197.42,287.69a15,15,0,0,1,1.708-5.77h45.465A74.4,74.4,0,0,1,250.814,289.105Z" transform="translate(-197.42 -269.994)" fill="#fff"/></g><g transform="translate(84.132 42.994)"><path d="M246.973,114.03c-4.733,6.392-23.934,16.822-29.619,18.249s-15.822,2.562-30.509,1.134c-.146-2.9-3.83-14.663-7.148-24.08-2.086-5.929-4.038-10.93-4.855-12.211-2.135-3.318-14.346-7.014-16.481-11.516S157.6,66.32,157.6,66.32,147.919,48.3,150.3,45.692s14.834-8.515,14.834-8.515,10.052-2.281,14.7-1.879,33.266.3,37.767,10.735S236.311,102.2,236.311,102.2,237.263,104.551,246.973,114.03Z" transform="translate(-149.922 -35.251)" fill="#ef515f"/><path d="M218.123,95.365c-1.6,1.2-28.448,3.916-42.928,2.806-2.086-5.929-4.038-10.93-4.855-12.211,0,0,13.321,5.221,23.763,6.27S220.209,93.8,218.123,95.365Z" transform="translate(-145.432 -24.101)" fill="#d3333b"/></g><g transform="translate(69.519 48.165)"><g transform="translate(25.077 94.297)"><path d="M189.57,126.878c-21.214,27.679-22.373,26.2-22.373,26.2-6.356-.488-8.7-6.7-8.7-6.7l16.969-29.594A32.925,32.925,0,0,1,189.57,126.878Z" transform="translate(-158.5 -116.79)" fill="#f7ab9d"/></g><g transform="translate(39.74)"><path d="M214.253,82.088c-1.366,13.345-2.306,30.778-14.968,48.563-3.184,4.477-7.185,9.539-11.406,14.6-4.306-5.233-12.87-8.771-17.359-10.357l15.712-29.143s4.977-58.03,7.722-62.47,9.564-5.367,15.053-.683C214.082,46.919,215.619,68.743,214.253,82.088Z" transform="translate(-170.52 -39.49)" fill="#d3333b"/></g><g transform="translate(0 120.658)"><path d="M154.591,138.4a33.894,33.894,0,0,0-4.489.781c-.72.329-7.014,6.526-7.734,7.185s-4.013,1.561-4.379,2.22,1.378,2.672,4.489,1.7S153.456,140.559,154.591,138.4Z" transform="translate(-137.943 -138.4)" fill="#ef515f"/><path d="M171.027,148.33c-1.915.915-10.271.915-10.271.915s-7.453,1.427-10.454,1.561c-1.147.049-2.6.134-3.977.171-.83.012-1.635.012-2.342-.024-1.183-.073-2.086-.256-2.318-.671-.6-1.049,9.979-11.882,12.1-11.882,3.355,0,13.785,1.049,13.785,1.049C173.784,141.279,172.954,147.415,171.027,148.33Z" transform="translate(-137.13 -138.4)" fill="#f7ab9d"/><path d="M145.9,150.205c-.83.012-1.635.012-2.342-.024,2.72-3.342,8.637-8.771,8.832-8.234C152.563,142.386,148.464,147.229,145.9,150.205Z" transform="translate(-136.708 -137.628)" fill="#ef515f"/></g></g><g transform="translate(86.355 8.202)"><g transform="translate(7.083 14.812)"><path d="M178.617,37.229c-1.83,4.318-9.552,7.588-15.175,3.538a27.285,27.285,0,0,0-1.025-5.709c-1.683-6.587-4.867-15.492-4.867-15.492,6.282-3.672,18.445,8.368,18.445,10.21a10.128,10.128,0,0,0,1.805,6.173C178.044,36.35,178.312,36.765,178.617,37.229Z" transform="translate(-157.55 -18.872)" fill="#f09087"/><path d="M177.812,35.948a39.9,39.9,0,0,1-7.71.952,13.989,13.989,0,0,1-7.685-1.842c-1.683-6.587-4.867-15.492-4.867-15.492,6.282-3.672,18.445,8.368,18.445,10.21A10.25,10.25,0,0,0,177.812,35.948Z" transform="translate(-157.55 -18.872)" fill="#ef515f"/><path d="M177.641,32.94s-4.257,2.83-6.49,3.952c-3.843-.622-9.356-2.232-9.356-2.232s-.085,2.257.061,4.562c1.342,3.367,7.234,6.026,7.234,6.026s1.744-2.769,2.72-4.7a48.851,48.851,0,0,0,3.074,3.806c2.428-1.147,5.331-7.673,5.294-8.612A9.317,9.317,0,0,0,177.641,32.94Z" transform="translate(-156.622 -15.779)" fill="#d3333b"/></g><g transform="translate(0 11.726)"><path d="M153.313,16.6c-1.866.878-1.744,2.672-1.269,4.514s4.074,5.5,6.831,5.819a8.4,8.4,0,0,0,3.879-.268S157.875,14.449,153.313,16.6Z" transform="translate(-151.744 -16.342)" fill="#f09087"/><path d="M154.134,17.719c1.415-.366,3.867,1.269,5.453,3.855-1.488.073-2.147.744-1.574,1.671s3.245,1.708,3.867,1.452a5.634,5.634,0,0,0,.476.72c-.4.024-5.929.22-6.392-2.306-.281-1.94,2.269-2.159,2.269-2.159s-1.94-2.135-3.355-1.622c-1.342.476-1.244,2.257-1.244,2.257S151.792,18.341,154.134,17.719Z" transform="translate(-151.48 -16.051)" fill="#ef515f"/></g><g transform="translate(30.175 11.207)"><path d="M183.272,15.969c2.025.4,2.342,2.159,2.318,4.074s-2.611,6.319-5.209,7.307a8.379,8.379,0,0,1-3.83.683S178.319,14.993,183.272,15.969Z" transform="translate(-176.465 -15.917)" fill="#f09087"/><path d="M182.579,17.3c-1.464-.012-3.44,2.171-4.355,5.062,1.464-.281,2.257.2,1.94,1.232s-2.733,2.44-3.391,2.342a4.766,4.766,0,0,1-.293.817c.39-.073,5.807-1.22,5.648-3.782-.2-1.952-2.733-1.549-2.733-1.549s1.354-2.537,2.867-2.391c1.415.134,1.757,1.879,1.757,1.879S184.995,17.337,182.579,17.3Z" transform="translate(-176.48 -15.613)" fill="#ef515f"/></g><g transform="translate(6.326)"><path d="M184.768,15.511s-.11.732-.3,1.915c-.793,4.843-2.989,17.322-4.66,18.994-2.086,2.086-13.748-1.391-16.517-3S156.93,20.6,156.93,20.6s1.61-3.464,1.964-3.928,2.891-2.074,6.7-3,8.551-3.928,10.515-6.929C177.021,13.083,184.768,15.511,184.768,15.511Z" transform="translate(-156.93 -6.728)" fill="#f7ab9d"/><path d="M184.768,15.513s-.11.732-.3,1.915c-3.769-.915-7.307-4.026-9.21-6.282-2.55,3.135-10.772,5.355-13.187,5.941s-5.136,3.5-5.136,3.5,1.61-3.464,1.964-3.928,2.891-2.074,6.7-3,8.551-3.928,10.515-6.929C177.021,13.086,184.768,15.513,184.768,15.513Z" transform="translate(-156.93 -6.73)" fill="#f09087"/></g><g transform="translate(26.247 8.193)"><path d="M176.775,18.034a1.74,1.74,0,1,0-1.574,1.9A1.759,1.759,0,0,0,176.775,18.034Z" transform="translate(-173.25 -12.784)" fill="#2f2d44"/><path d="M179.3,15.976a7.062,7.062,0,0,0-3.038-.988,8.417,8.417,0,0,0-3,.927,4.477,4.477,0,0,1,2.952-2.44C178.493,13.134,179.3,15.976,179.3,15.976Z" transform="translate(-173.26 -13.447)" fill="#2f2d44"/></g><g transform="translate(15.439 8.043)"><path d="M169.535,18.034a1.74,1.74,0,1,0-1.574,1.9A1.779,1.779,0,0,0,169.535,18.034Z" transform="translate(-164.034 -12.634)" fill="#2f2d44"/><path d="M164.4,15.832a8.3,8.3,0,0,1,3.355-.964,10.273,10.273,0,0,1,3.33.939,4.895,4.895,0,0,0-3.281-2.452C165.266,12.99,164.4,15.832,164.4,15.832Z" transform="translate(-164.4 -13.323)" fill="#2f2d44"/></g><g transform="translate(23.098 10.357)"><path d="M171.642,15.22s-1.086,4.294-.39,5.587,3.55,1.9,3.55,1.9a10.887,10.887,0,0,1-2.293-2.562C171.947,19.038,171.642,15.22,171.642,15.22Z" transform="translate(-170.604 -15.22)" fill="#ef515f"/><path d="M173.364,21.793c-.134-.3-2.757-.244-2.684.3C170.814,23.086,173.523,22.147,173.364,21.793Z" transform="translate(-170.679 -13.815)" fill="#f09087"/></g><g transform="translate(18.274 20.859)"><path d="M166.731,23.83a4.943,4.943,0,0,0,3.7,3,4.861,4.861,0,0,0,5.258-2.074S171.806,26.368,166.731,23.83Z" transform="translate(-166.724 -23.829)" fill="#ef515f"/></g></g></g><g transform="translate(36.54 53.206)"><g transform="translate(196.852)"><g transform="translate(69.497 170.579)"><path d="M254.88,196.771v14.1H398.887v-14.1a13.323,13.323,0,0,0-13.321-13.321H268.189A13.312,13.312,0,0,0,254.88,196.771Z" transform="translate(-254.88 -183.45)" fill="#f9dea6"/></g><g transform="translate(0)"><g transform="translate(0 141.88)"><path d="M321.484,163.286s-58.335,13.98-68.033,19.872S220.1,298.327,220.1,298.327s22.873,7.966,29.8,17.322c11.43-49.905,27.8-102.689,27.8-102.689s46.087-12.821,55.444-16.285,24.263-14.212,28.069-28.069S325.071,161.1,321.484,163.286Z" transform="translate(-193.031 -159.924)" fill="#2f2d44"/><g transform="translate(0 132.039)"><path d="M254.781,291.849H239.252l-4.16.012H197.91a38.252,38.252,0,0,1,2.94-3.391c1.879-1.94,4.392-4.135,6.783-4.94,4.623-1.537,11.65-6.246,14.151-8.515s12.382-7.673,16.237-6.746c3.172.756,12.967,10.686,15.932,18.737.183.5.342.988.464,1.464A9.827,9.827,0,0,1,254.781,291.849Z" transform="translate(-197.91 -268.163)" fill="#9f4835"/><path d="M254.781,288.189H239.252l-4.16.012H197.91a59.684,59.684,0,0,1,5.343-3.391h51.162A9.827,9.827,0,0,1,254.781,288.189Z" transform="translate(-197.91 -264.503)" fill="#843528"/><path d="M215.6,278.053c-4.221,2.879-11,4.831-12.138,6.173l-1.134,1.342,24.581-.3C226.911,285.25,222.177,277.638,215.6,278.053Z" transform="translate(-196.938 -265.992)" fill="#af5647"/><path d="M240.583,274.079s-7.868,5.319-12.418,6.941-8.564,2.781-9.332,6.868l-.927.159s-.927-2.159,3.245-5.172,6.636-2.391,10.564-4.782,8.259-5.172,8.259-5.172Z" transform="translate(-193.533 -267.117)" fill="#843528"/></g></g><g transform="translate(86.184 144.925)"><g transform="translate(0 128.994)"><path d="M325.443,291.849H309.9l-4.16.012H268.56a38.255,38.255,0,0,1,2.94-3.391c1.879-1.94,4.392-4.135,6.783-4.94,4.623-1.537,11.65-6.246,14.151-8.515s12.382-7.673,16.237-6.746c3.172.756,12.967,10.686,15.932,18.737.183.5.342.988.464,1.464A9.853,9.853,0,0,1,325.443,291.849Z" transform="translate(-268.56 -268.163)" fill="#9f4835"/><path d="M325.443,288.189H309.9l-4.16.012H268.56a59.684,59.684,0,0,1,5.343-3.391h51.162A9.853,9.853,0,0,1,325.443,288.189Z" transform="translate(-268.56 -264.503)" fill="#843528"/><path d="M286.252,278.053c-4.221,2.879-11,4.831-12.138,6.173l-1.134,1.342,24.581-.3C297.573,285.25,292.84,277.638,286.252,278.053Z" transform="translate(-267.588 -265.992)" fill="#af5647"/><path d="M311.233,274.079s-7.868,5.319-12.418,6.941-8.564,2.781-9.332,6.868l-.927.159s-.927-2.159,3.245-5.172,6.636-2.391,10.564-4.782,8.259-5.172,8.259-5.172Z" transform="translate(-264.183 -267.117)" fill="#843528"/></g><g transform="translate(23.373)"><path d="M382.566,183.475c-2.342,5.977-46.526,28.326-46.526,28.326L321.218,315.1s-2.611-1.561-6.368-3.66c-.622-.342-1.269-.708-1.94-1.074-7.649-4.184-20.543-11.833-25.19-11.991,4.416-24.434,10.369-76.694,12.711-92.552s31.973-33.01,31.973-33.01l6.234-10.393,23.751,5.733,12.638,3.05,7.8,1.879A13.907,13.907,0,0,1,382.566,183.475Z" transform="translate(-287.72 -162.42)" fill="#40405a"/><path d="M370.5,170.167c-2.232,5.624-5.575,10.479-7.2,11.76-1.671,1.305-18.493,11.381-28.838,17.554a19.513,19.513,0,0,0-9.344,14.114l-14.8,96.822c-.622-.342-1.269-.708-1.94-1.073L323.4,212.229a19.464,19.464,0,0,1,9.149-13.955c5.965-3.647,14.907-9.137,25.386-15.651a20.165,20.165,0,0,1-.073-15.492Z" transform="translate(-283.177 -161.384)" fill="#2f2d44"/></g></g><g transform="translate(41.841 55.024)"><g transform="translate(20.027 26.589)"><path d="M249.375,136.613s33.961,21.7,55.822,10.381c8.966-11.638,17.3-27.679,17.139-28.143s-19.494-8.332-19.494-8.332l-12.894,18.713-36.633.159C253.315,129.379,246.386,132.051,249.375,136.613Z" transform="translate(-248.627 -110.52)" fill="#f7ab9d"/></g><g transform="translate(0 31.632)"><path d="M238.81,129.232l10.393,5.2s8.149.7,8.259-2.537-9.93-13.223-11.381-13.516-7.392,1.854-7.917,2.489-1.9,7.734-1.9,7.734Z" transform="translate(-231.318 -113.842)" fill="#ef515f"/><path d="M240.335,130.184c.122,1.452-.805,2.342-2.025,1.708-.805,1.854-2.379,1.11-4.038-.805-1.9-2.2-2.184-3.745-2.025-4.916.293-2.074,1.208-2.489,1.208-2.489a18.514,18.514,0,0,1,1.293-2.72,4.108,4.108,0,0,1,.671-.866c.927-.805,9.039,1.122,9.039,1.122l-5.587.671.744,4.721C240.017,128.427,240.274,129.5,240.335,130.184Z" transform="translate(-232.209 -113.501)" fill="#f09087"/><path d="M238.085,131.7a14.962,14.962,0,0,1-4.855-8.2,18.514,18.514,0,0,1,1.293-2.72A22.069,22.069,0,0,0,238.085,131.7Z" transform="translate(-231.985 -113.307)" fill="#ef515f"/><path d="M245.214,117.838s-6.234-1.33-7.966.4-4.5,12.248-2.769,13.626,5.367-9.527,5.367-9.527l5.258-.061Z" transform="translate(-231.831 -114.061)" fill="#f7ab9d"/><path d="M244.3,114.674c-3,.573-3.123,5.66-3,7.966s.464,9.356,1.732,9.588c.952.171,1.72-6.648,2.037-10.04a.739.739,0,0,1,1.317-.39c1.074,1.378,2.147,2.757,3.172,4.172s2.123,2.7,1.708,4.575c-.817,3.745-5.27,3.086-7.087,5.782-1.439,2.135-.842,4.965.866,4.16.976-.464,2.769-2.367,4.27-2.6a34,34,0,0,0,6.88-1.525,4.943,4.943,0,0,0,3-2.281c1.866-3.879-1.915-7.746-4.257-10.479a47.9,47.9,0,0,0-7.856-7.624C246.407,115.491,245.223,114.5,244.3,114.674Z" transform="translate(-230.218 -114.654)" fill="#f7ab9d"/></g><g transform="translate(64.325)"><path d="M306.02,89.537c-6,2.257-21.079,35.8-21.079,35.8s19.579,7.453,24.947,13.516c6.417-15.59,12.3-26.166,11.955-34.657S316.01,85.792,306.02,89.537Z" transform="translate(-284.94 -88.723)" fill="#cbebfb"/></g></g><g transform="translate(126.989 41.626)"><path d="M382.486,195.4l-79.012-14.029,7.453-24.434-1.037-7.99-3.123-24.056s-6.063-30.155-4.5-32.925,17.322-11.613,17.322-11.613c2.074-1.732,13.687-3.123,16.981-2.428s27.374,7.8,31.7,11.784,16.285,49.552,16.81,66.361S382.486,195.4,382.486,195.4Z" transform="translate(-302.009 -77.74)" fill="#fff"/><path d="M356.179,149.494c-.525,2.342-46.673-5.4-46.673-5.4l-1.037-7.99C319.8,137.8,356.619,147.481,356.179,149.494Z" transform="translate(-300.589 -64.908)" fill="#cbebfb"/></g><g transform="translate(148.046 52.037)"><g transform="translate(37.463)"><path d="M382.031,141.114c.256-.537.134-9.82-6.1-23.214-7.161.232-18.371,6.234-18.371,6.234l3.464,13.162s2.306,7.5,3.928,8.661S376.468,152.9,382.031,141.114Z" transform="translate(-348.315 -79.321)" fill="#f09087"/><path d="M355.542,86.379c1.171-1.366,15.017,10.979,19.518,21.25,4.331,9.893,6.465,16.639,6.465,16.639s-4.5,5.2-13.748,7.856-13.053,1.732-13.053,1.732S343.526,100.359,355.542,86.379Z" transform="translate(-349.981 -86.275)" fill="#cbebfb"/></g><g transform="translate(0 53.068)"><path d="M335.05,149.665s16.651,1.879,23.4,2.2,16.737.659,22.714-5.794,6.051-9.71,4.074-13.077-9.112-4.087-14.639-2.159-13.919,6.282-18.4,7.344a105.025,105.025,0,0,1-12.248,1.635Z" transform="translate(-315.802 -129.777)" fill="#f7ab9d"/><g transform="translate(0 4.271)"><path d="M342.764,138.491a10.056,10.056,0,0,1,1.4,7.807c-1,4.66-9.454,1.256-11.247-4.05C335.518,136.881,342.764,138.491,342.764,138.491Z" transform="translate(-316.27 -132.182)" fill="#f09087"/><path d="M325.345,141.257c-.488.061-5.38-1.086-5.9-.61s-.037,3.2,4.465,4.013,5.55-1.671,5.55-1.671a15.727,15.727,0,0,0,3.611,2.33,6.179,6.179,0,0,0,3.928.207s4.648,3.22,5.782,2.415,1.988-4.453-.073-7.783-5.807-5.1-7.819-4.855C332.847,135.536,325.833,141.184,325.345,141.257Z" transform="translate(-319.271 -132.838)" fill="#ef515f"/><path d="M344.477,139.587c-.244-1.476-2.208-.451-2.208-.451a2.442,2.442,0,0,0-.878-2.818c-.586-.39-2.11.634-2.11.634s.732-2.232-.1-2.781-2.7-.012-2.7-.012-.549-.329-1.354-.732c-.756-.378-2.818.037-3.684.451-3.074,1.476-5.294,4.88-6.185,6.685a.012.012,0,0,1-.012.012,1.122,1.122,0,0,0,.683,1.586l.159.049a1.146,1.146,0,0,0,1.147-.317c1.818-1.976,5.319-4.721,5.831-4.538l1.342.476h0c-.122.207-4.575,8.088-3.867,9.076s1.22,1.012,2.281-.122a76.093,76.093,0,0,0,4.892-7.222s-2.9,8.1-2.354,8.82.878,1.037,1.854.439,3.647-7.209,3.647-7.209-1.549,8.173-.1,8.515C342.233,150.444,344.733,141.063,344.477,139.587Z" transform="translate(-317.983 -133.278)" fill="#f7ab9d"/><path d="M335.066,134.132s-.561.232-2.074,3.66l-1.342-.476,2.062-3.916C334.5,133.8,335.066,134.132,335.066,134.132Z" transform="translate(-316.549 -133.251)" fill="#f09087"/></g></g></g><g transform="translate(126.768)"><path d="M338.951,66.262a78.82,78.82,0,0,1-4.526,10.54l-1.086-1.732-3.245-5.16-20.335-.354-1.915-.037s-4.733-5.123-4.928-7.588c-.2-2.428,2.574-8.381,2.659-8.564-.122.122-3.647,3.416-3.745,2.159-.1-1.281,4.135-5.123,4.135-5.123s-3.452-4.038-2.562-4.831,5.221,2.367,5.221,2.367A7.978,7.978,0,0,1,313.456,44c3.647-1.183,17.92.293,22.653,5.709C340.818,55.136,341.11,60.065,338.951,66.262Z" transform="translate(-301.829 -43.617)" fill="#2f2d44"/><path d="M337.378,63.124a84.758,84.758,0,0,1-4.562,11.247l-3.245-5.16-20.335-.354-3.623-4.282a10.28,10.28,0,0,1-1.5-5.258c.171-2.6,5.6-7.624,5.6-7.624s-.4-2.489.061-3.233,1.671-1.61,6.648-1.671,14.907,1.561,18.14,4.623S338.427,59.087,337.378,63.124Z" transform="translate(-301.329 -42.92)" fill="#171826"/><g transform="translate(11.859 26.127)"><path d="M319.022,87.017s-1.671,15.419-.146,15.919,3.391-4.074,3.391-4.758.171-11.369.171-11.369Z" transform="translate(-310.081 -60.247)" fill="#1967a5"/><path d="M317.893,76.98s-5.026,2.074-5.55,5.428c-.232,1.537-1.159,4.9-.634,6.758s4.623,8.661,4.623,8.661-.525-3.464.4-5.258,3.757-2.769,3.757-2.769,3.062,1.964,4.453,7.734c7.392-3.525,12.882-6,14.151-10.564s.805-6.526.4-7.917-3.989-4.038-5.428-4.684C332.629,73.748,322.175,74.382,317.893,76.98Z" transform="translate(-311.55 -63.031)" fill="#3985c3"/><path d="M314.071,84.4a3.791,3.791,0,0,1,.525-3.989c1.561-2.135,7.856-5.319,10.747-5.55s8.32.525,8.429,2.94C333.882,80.237,323.427,89.471,314.071,84.4Z" transform="translate(-311.07 -62.884)" fill="#1967a5"/><path d="M333.362,84.52c-2.025,2.428-9.649,6.758-13.394,7.283-2.83-.927-6.295-5.2-5.953-5.258s3.464-3.062,3.806-4.733a11.585,11.585,0,0,0-.329-1.464,18.2,18.2,0,0,0-1.866-4.2c-1.33-6.295,12.528-12.711,13.626-10.747.268.488.781,1.61,1.4,3,1.842,4.184,4.623,10.918,4.831,11.259C335.789,80.129,335.387,82.093,333.362,84.52Z" transform="translate(-311.014 -65.032)" fill="#f09087"/><path d="M330.387,68.408c-1,3.318-2.257,5.148-5.331,7.649a34.337,34.337,0,0,1-7.844,4.282,18.2,18.2,0,0,0-1.866-4.2c-1.33-6.295,12.528-12.711,13.626-10.747C329.253,65.9,329.765,67.017,330.387,68.408Z" transform="translate(-310.735 -65.035)" fill="#ef515f"/><path d="M315.85,83.231c-.817.561,3.208,2.6,4.587,2.6s10.662-4.16,10.308-4.855-10.479,3.464-10.479,3.464S316.972,82.45,315.85,83.231Z" transform="translate(-310.629 -61.547)" fill="#ef515f"/></g></g><g transform="translate(126.953 10.263)"><g transform="translate(0 8.976)"><path d="M301.98,62.867c0,1.622,2.159,5.392,4.355,6.258a6.978,6.978,0,0,0,3.245.61s-.037-.329-.134-.866c-.037-.183-.073-.4-.11-.647-.549-3-2.11-9.393-5.343-8.8C302.273,59.756,301.98,61.257,301.98,62.867Z" transform="translate(-301.98 -59.388)" fill="#f09087"/></g><g transform="translate(28.789 6.642)"><path d="M333.741,61.2c0,1.744-2.318,5.794-4.672,6.722a7.506,7.506,0,0,1-3.489.659s.049-.354.134-.927c.037-.207.073-.439.122-.7.586-3.22,2.269-10.088,5.746-9.442C333.436,57.859,333.741,59.469,333.741,61.2Z" transform="translate(-325.58 -57.475)" fill="#f09087"/><path d="M332.265,62.021s-.329-1.586-1.622-1.7c-1.378-.122-2.586,2.208-2.586,2.208s2.306-.39,2.513,1.378c.159,2.1-3.83,3.208-4.88,3.464.037-.207.073-.439.122-.7.708-.049,2.708-1.269,2.977-2.171.281-.951-.451-1.378-1.781-1.11.805-2.647,2.586-4.66,3.916-4.66C333.131,58.74,332.265,62.021,332.265,62.021Z" transform="translate(-325.556 -57.197)" fill="#ef515f"/></g><g transform="translate(4.452)"><path d="M331.553,59.605s-.037,1.086-.11,2.818c-.073,1.537-.183,3.586-.342,5.843-.317,4.416-3,6.7-6.124,8.6-2.83,1.732-10.162,5.258-13.748,3.233-3.013-1.708-4.892-13.931-5.441-19.2-.1-.976-.159-1.72-.159-2.11-.061-2.489,4.392-6.758,4.392-6.758a10.039,10.039,0,0,0,6.417,5.136C321.049,58.337,331.553,59.605,331.553,59.605Z" transform="translate(-305.629 -52.03)" fill="#f7ab9d"/><path d="M331.553,59.6s-.037,1.086-.11,2.818c-4.172-.476-14.663-1.781-17.322-3.159-3.355-1.732-4.16-3.7-4.16-3.7l-4.172,5.343c-.1-.976-.159-1.72-.159-2.11-.061-2.489,4.392-6.758,4.392-6.758a10.039,10.039,0,0,0,6.417,5.136C321.049,58.335,331.553,59.6,331.553,59.6Z" transform="translate(-305.629 -52.028)" fill="#f09087"/><path d="M311.33,69.628s1.7,1.635,5.014.83a6.482,6.482,0,0,0,4.892-4.977S317.393,70.238,311.33,69.628Z" transform="translate(-304.376 -49.073)" fill="#ef515f"/><g transform="translate(6.991 10.698)"><path d="M312.629,60.8s1.5,2.428,1.1,4.27a5.637,5.637,0,0,1-2.367,3.062S313.092,65.7,312.629,60.8Z" transform="translate(-311.36 -60.8)" fill="#ef515f"/><path d="M314.684,66.459c-.207-.708-2.647.171-2.257.439C312.818,67.142,314.9,67.191,314.684,66.459Z" transform="translate(-311.135 -59.615)" fill="#f09087"/></g><g transform="translate(10.931 7.696)"><path d="M318.37,62.354a1.544,1.544,0,0,0-.537-1.037c-.11-.073-.22-.146-.342-.22a1.555,1.555,0,0,0-.817-.146,1.571,1.571,0,0,0-1.037.537,1.641,1.641,0,0,0-.366,1.147,1.544,1.544,0,0,0,.537,1.037c.11.073.22.146.342.22a1.555,1.555,0,0,0,.817.146,1.551,1.551,0,0,0,1.4-1.683Z" transform="translate(-314.442 -57.766)" fill="#2f2d44"/><path d="M314.59,60.121a8.505,8.505,0,0,1,2.855-.525,23.558,23.558,0,0,1,2.9.476,3.429,3.429,0,0,0-3.159-1.732C315.712,58.377,314.59,60.121,314.59,60.121Z" transform="translate(-314.59 -58.339)" fill="#2f2d44"/></g><g transform="translate(1.355 8.001)"><path d="M311.05,62.354a1.544,1.544,0,0,0-.537-1.037c-.11-.073-.22-.146-.342-.22a1.555,1.555,0,0,0-.817-.146,1.571,1.571,0,0,0-1.037.537,1.641,1.641,0,0,0-.366,1.147,1.544,1.544,0,0,0,.537,1.037c.11.073.22.146.342.22a1.555,1.555,0,0,0,.817.146,1.571,1.571,0,0,0,1.037-.537A1.533,1.533,0,0,0,311.05,62.354Z" transform="translate(-306.475 -58.071)" fill="#2f2d44"/><path d="M306.74,60.371a8.5,8.5,0,0,1,2.855-.525,23.557,23.557,0,0,1,2.9.476,3.429,3.429,0,0,0-3.159-1.732C307.862,58.627,306.74,60.371,306.74,60.371Z" transform="translate(-306.74 -58.589)" fill="#2f2d44"/></g></g></g></g></g><g transform="translate(183.177 7.433)"><path d="M319.368,143.8H197.721a8.051,8.051,0,0,1-8.051-8.051V57.761a8.051,8.051,0,0,1,8.051-8.051H319.368a8.051,8.051,0,0,1,8.051,8.051v77.987A8.044,8.044,0,0,1,319.368,143.8Z" transform="translate(-186.047 -49.71)" fill="#cbebfb"/><path d="M316.4,143.8H194.751a8.051,8.051,0,0,1-8.051-8.051V57.761a8.051,8.051,0,0,1,8.051-8.051H316.4a8.051,8.051,0,0,1,8.051,8.051v77.987A8.044,8.044,0,0,1,316.4,143.8Z" transform="translate(-186.7 -49.71)" fill="#fff"/><path d="M260.282,88.564H231.517a1.036,1.036,0,0,1-1.037-1.037h0a1.036,1.036,0,0,1,1.037-1.037h28.765a1.036,1.036,0,0,1,1.037,1.037h0A1.044,1.044,0,0,1,260.282,88.564Z" transform="translate(-177.074 -41.623)" fill="#b6e4f9"/><path d="M260.282,93.414H231.517a1.036,1.036,0,0,1-1.037-1.037h0a1.036,1.036,0,0,1,1.037-1.037h28.765a1.036,1.036,0,0,1,1.037,1.037h0A1.044,1.044,0,0,1,260.282,93.414Z" transform="translate(-177.074 -40.556)" fill="#b6e4f9"/><path d="M260.282,78.614H231.517a1.036,1.036,0,0,1-1.037-1.037h0a1.036,1.036,0,0,1,1.037-1.037h28.765a1.036,1.036,0,0,1,1.037,1.037h0A1.036,1.036,0,0,1,260.282,78.614Z" transform="translate(-177.074 -43.811)" fill="#b6e4f9"/><path d="M260.282,83.464H231.517a1.036,1.036,0,0,1-1.037-1.037h0a1.036,1.036,0,0,1,1.037-1.037h28.765a1.036,1.036,0,0,1,1.037,1.037h0A1.036,1.036,0,0,1,260.282,83.464Z" transform="translate(-177.074 -42.744)" fill="#b6e4f9"/><path d="M229.02,106.188h0a3.212,3.212,0,0,1,3.208-3.208h24.08a3.212,3.212,0,0,1,3.208,3.208h0a3.212,3.212,0,0,1-3.208,3.208h-24.08A3.212,3.212,0,0,1,229.02,106.188Z" transform="translate(-177.395 -37.997)" fill="#b6e4f9"/><path d="M256.67,149.211s-4.538-18.335.073-42.891H233.37c-2.611,8.112-9.674,30.009-8.32,45.758H274.5v-2.855H256.67Zm-15.9-11.235c-3,0-5.428-3.757-5.428-8.393s2.428-8.393,5.428-8.393,5.428,3.757,5.428,8.393S243.776,137.976,240.775,137.976Z" transform="translate(-178.305 -37.263)" fill="#cbebfb"/><path d="M269.756,149.213v2.855H249.847c-6.331-13.638-2.037-39.073-.744-45.758h2.891c-4.623,24.556-.073,42.891-.073,42.891h17.835Z" transform="translate(-173.556 -37.265)" fill="#b6e4f9"/></g><g transform="translate(41.72 7.433)"><path d="M203.408,143.8H81.761a8.051,8.051,0,0,1-8.051-8.051V57.761a8.051,8.051,0,0,1,8.051-8.051H203.408a8.051,8.051,0,0,1,8.051,8.051v77.987A8.044,8.044,0,0,1,203.408,143.8Z" transform="translate(-70.087 -49.71)" fill="#cbebfb"/><path d="M200.438,143.8H78.791a8.051,8.051,0,0,1-8.051-8.051V57.761a8.051,8.051,0,0,1,8.051-8.051H200.438a8.051,8.051,0,0,1,8.051,8.051v77.987A8.044,8.044,0,0,1,200.438,143.8Z" transform="translate(-70.74 -49.71)" fill="#fff"/><path d="M144.322,88.564H115.557a1.036,1.036,0,0,1-1.037-1.037h0a1.036,1.036,0,0,1,1.037-1.037h28.765a1.036,1.036,0,0,1,1.037,1.037h0A1.036,1.036,0,0,1,144.322,88.564Z" transform="translate(-61.114 -41.623)" fill="#b6e4f9"/><path d="M144.322,93.414H115.557a1.036,1.036,0,0,1-1.037-1.037h0a1.036,1.036,0,0,1,1.037-1.037h28.765a1.036,1.036,0,0,1,1.037,1.037h0A1.036,1.036,0,0,1,144.322,93.414Z" transform="translate(-61.114 -40.556)" fill="#b6e4f9"/><path d="M144.322,78.614H115.557a1.036,1.036,0,0,1-1.037-1.037h0a1.036,1.036,0,0,1,1.037-1.037h28.765a1.036,1.036,0,0,1,1.037,1.037h0A1.028,1.028,0,0,1,144.322,78.614Z" transform="translate(-61.114 -43.811)" fill="#b6e4f9"/><path d="M144.322,83.464H115.557a1.036,1.036,0,0,1-1.037-1.037h0a1.036,1.036,0,0,1,1.037-1.037h28.765a1.036,1.036,0,0,1,1.037,1.037h0A1.028,1.028,0,0,1,144.322,83.464Z" transform="translate(-61.114 -42.744)" fill="#b6e4f9"/><path d="M113.06,106.188h0a3.212,3.212,0,0,1,3.208-3.208h24.08a3.212,3.212,0,0,1,3.208,3.208h0a3.212,3.212,0,0,1-3.208,3.208h-24.08A3.212,3.212,0,0,1,113.06,106.188Z" transform="translate(-61.435 -37.997)" fill="#b6e4f9"/><path d="M140.71,149.211s-4.538-18.335.073-42.891H117.41c-2.611,8.112-9.674,30.009-8.32,45.758h49.454v-2.855H140.71Zm-15.9-11.235c-3,0-5.428-3.757-5.428-8.393s2.428-8.393,5.428-8.393,5.428,3.757,5.428,8.393S127.816,137.976,124.815,137.976Z" transform="translate(-62.345 -37.263)" fill="#cbebfb"/><path d="M153.8,149.213v2.855H133.887c-6.331-13.638-2.037-39.073-.744-45.758h2.891c-4.623,24.556-.073,42.891-.073,42.891H153.8Z" transform="translate(-57.596 -37.265)" fill="#b6e4f9"/></g><g transform="translate(0 122.236)"><rect width="10.442" height="175.699" fill="#9f4835"/><rect width="10.442" height="175.699" transform="translate(109.936)" fill="#9f4835"/><path d="M498.85,143.82v175.7H488.4V154.262H396.49V319.519H386.048V154.262H36.54V143.82Z" transform="translate(-36.54 -143.82)" fill="#843528"/><path d="M394.928,152.382v68.935h-51.54a10.792,10.792,0,0,1-10.8-10.8h0a24.714,24.714,0,0,0-24.715-24.715H126.421a26.11,26.11,0,0,0-24.727,17.749h0a26.083,26.083,0,0,1-24.727,17.749H36.54V152.37H394.928Z" transform="translate(-36.54 -141.94)" fill="#fff"/><rect width="103.922" height="68.935" transform="translate(358.388 10.442)" fill="#f9dea6"/></g></g><g transform="translate(416.266 112.019)"><g transform="translate(0 60.622)"><path d="M560.53,269.887c-6.587,28.069-24.6,49.551-43.66,49.551H388.3c-50.588-10.747-45.745-95.639-28.411-106.727a42.9,42.9,0,0,1,10.528-4.916,39.328,39.328,0,0,1,23.08-.281s.525-36.865,14.907-49.551c27.264-24.068,80.683-19.311,114.852-1.147,2.745,1.452,5.355,3,7.819,4.611C564.336,183.251,567.105,241.818,560.53,269.887Z" transform="translate(-347.821 -141.524)" fill="#ef515f"/><path d="M512.212,263.654C490.73,281.33,445.68,291.723,406.864,278.9s-45.4-37.767-44.013-54.748c.683-8.429,2.574-13.443,4.294-16.359a39.328,39.328,0,0,1,23.08-.281s.525-36.865,14.907-49.551c20.958-18.493,57.347-19.969,88.575-11.418a45.4,45.4,0,0,1,33.413,44.709,2.971,2.971,0,0,1-.012.329c-.342,15.944-7.283,16.285-7.283,16.285s4.5,2.769,10.393,12.126S533.694,245.977,512.212,263.654Z" transform="translate(-344.554 -141.524)" fill="#d3333b"/><path d="M472.76,277.438s-.525,18.188,15.078,16.115c16.688-2.22,40.549-32.229,38.987-66.532-3.123-7.283-8.966-1.6-16.115,10.918C496.145,263.409,481.08,261.848,472.76,277.438Z" transform="translate(-320.35 -123.432)" fill="#f48f9c"/></g><g transform="translate(17.085)"><g transform="translate(43.834 59.1)"><path d="M405.556,168.2s-4.416,10.564-5.2,14.029-1.647,7.368-.256,9.8c10.052-2.769,16.285-4.855,16.285-4.855l7.539-14.041Z" transform="translate(-397.407 -134.136)" fill="#f09087"/><path d="M401.065,193.553s-4.5-7.283,1.964-12.479c7.319-5.88,15.48,2.074,14.09,7.5S406.847,199.908,401.065,193.553Z" transform="translate(-397.369 -131.761)" fill="#f09087"/><path d="M417.387,141.074c-3.952,1.464-14.114,29.509-16.407,38.158,10.442,3.05,21.128,7.38,21.128,7.38s8.905-14,8.905-27.24S426.915,137.536,417.387,141.074Z" transform="translate(-397.052 -140.276)" fill="#f68e1e"/><g transform="translate(0 52.998)"><path d="M408.661,184.82l4.245,4.245a22.214,22.214,0,0,1,3.55-3.489,5.959,5.959,0,0,1,4.562.061c.927.573,1.012,1.732-.11,2.074a7.869,7.869,0,0,0-3.172,1.9c-.232.268-3.355,3.952-5,4.392s-6.5.171-6.5.171S402.074,186.906,408.661,184.82Z" transform="translate(-396.182 -183.48)" fill="#ef515f"/><path d="M410.935,197.2c-1.391.439-1.732-1.476-1.732-1.476a1.988,1.988,0,0,1-1.183.634,2.929,2.929,0,0,1-1.683-.281,3.241,3.241,0,0,1-.781,1.134c-.927.781-2.232.2-4.331-2.44a13.1,13.1,0,0,0,.951,5.636,1.443,1.443,0,0,1-.073,1.513.817.817,0,0,1-.964.134c-2.72-1.049-3.379-7.88-3.379-8.661,0-.378.671-.72,1.342-.976a13.366,13.366,0,0,1,1.427-.415h0a1.777,1.777,0,0,1,.781-1.9c1.122-.866,1.818-.439,1.818-.439a5.539,5.539,0,0,1,.61-2.684c.61-.7,2.684-.7,2.684-.7.342-1.037.781-2.171,1.988-2.513s1.818,1.293,1.818,1.293.427,2.6.7,4.855S412.313,196.76,410.935,197.2Z" transform="translate(-397.76 -183.722)" fill="#f7ab9d"/><path d="M401.871,200.418a8.289,8.289,0,0,1-1.464-2.171,19.02,19.02,0,0,1-1.537-7.331,13.366,13.366,0,0,1,1.427-.415c-.012.037-.11.354.7,2.769a13.1,13.1,0,0,0,.951,5.636A1.44,1.44,0,0,1,401.871,200.418Z" transform="translate(-397.516 -182.231)" fill="#f09087"/><path d="M405.327,194.834a3.241,3.241,0,0,1-.781,1.134c-.952-.83-2.1-2.659-2.2-6.648A11.351,11.351,0,0,0,405.327,194.834Z" transform="translate(-396.751 -182.491)" fill="#f09087"/><path d="M407.615,195a1.987,1.987,0,0,1-1.183.634,15.859,15.859,0,0,1-1.366-8.625C405.529,189.084,407.615,195,407.615,195Z" transform="translate(-396.173 -182.998)" fill="#f09087"/></g></g><g transform="translate(59.462 167.771)"><path d="M416.34,234.32l-1.732,1.452a2.044,2.044,0,0,0-.72,1.818,71.555,71.555,0,0,1,0,8.088c-.085,2.6-2.928,8.673-3.269,11.882s1.232,7.38,2.794,10.674,5.55,5.514,5.55,5.514,3.037.171,3.806-.866C420.768,262.475,419.206,236.321,416.34,234.32Z" transform="translate(-410.571 -228.269)" fill="#fff"/><path d="M432.386,247.634C431,250.147,429.434,259.5,428.665,264s-5.111,11.869-8.149,9.881c-1.415-.927-3.111-3.513-4.538-6.343-.4-.781-.769-1.586-1.122-2.391a23.5,23.5,0,0,1-1.964-6.258c-.256-3.379,3.208-10.662,3.294-14.029s-1.122-8.661-.342-9.442,8.234-6.063,8.234-6.063,2.013,3.684,4.2,8.088c.268.525.525,1.074.793,1.61C431.679,244.474,433.094,246.329,432.386,247.634Z" transform="translate(-410.064 -229.36)" fill="#40405a"/><path d="M428.7,237.6c-2.269,2.879-4.733,6.417-5.5,9.1-1.561,5.367-1.732,8.149-3.294,12.65a19.778,19.778,0,0,1-4.282,6.734c-.4-.781-.769-1.586-1.122-2.391a17.743,17.743,0,0,0,3.672-4.526c1.208-2.769,1.9-7.8,3.123-13.175.622-2.745,3.721-6.758,6.624-10.015C428.163,236.517,428.431,237.053,428.7,237.6Z" transform="translate(-409.707 -227.904)" fill="#2f2d44"/><path d="M422.382,243.012l8.271,6.173a1.949,1.949,0,0,0,2.964-.805h0a1.258,1.258,0,0,0-.488-1.561l-9.308-5.892a1.274,1.274,0,0,0-1.927.829h0A1.284,1.284,0,0,0,422.382,243.012Z" transform="translate(-408.086 -226.86)" fill="#fff"/><path d="M418.411,252.1c1.33.988,2.659,1.976,3.989,2.977.939.7,1.879,1.4,2.818,2.1a8.956,8.956,0,0,0,1.671,1.208,1.673,1.673,0,0,0,2.013-.634c1.281-2.074-3.123-3.952-4.392-4.77q-2.324-1.482-4.648-2.977a1.274,1.274,0,0,0-1.927.829A1.219,1.219,0,0,0,418.411,252.1Z" transform="translate(-408.959 -224.864)" fill="#fff"/><path d="M419.924,247.7c1.378,1.037,2.769,2.062,4.148,3.1.951.708,1.891,1.415,2.842,2.123.7.525,1.525,1.427,2.452,1.2A1.557,1.557,0,0,0,430,253.8a1.736,1.736,0,0,0,.464-1.818c-.317-.939-1.561-1.61-2.367-2.11-.988-.622-1.976-1.256-2.977-1.879l-3.769-2.379a1.274,1.274,0,0,0-1.927.83A1.3,1.3,0,0,0,419.924,247.7Z" transform="translate(-408.629 -225.829)" fill="#fff"/></g><g transform="translate(0 217.64)"><path d="M416.2,291.893H363.636a1.8,1.8,0,0,1-1.72-2.354c.1-.317.22-.659.342-1,.6-1.561,1.488-3.208,2.745-3.818a64.564,64.564,0,0,0,11.674-6.819,69.064,69.064,0,0,0,6.234-5.2c2.086-1.622,6.819-2.428,11.686-2.464.671,0,1.354,0,2.025.024,5.526.183,10.784,1.342,12.052,3.367,1.757,2.794,4.684,10.442,6.319,14.907C415.725,290.539,416.2,291.893,416.2,291.893Z" transform="translate(-361.827 -270.24)" fill="#40405a"/><path d="M394.8,270.274c-3.464,4.026-7.807,8.637-11.052,10.637-5.648,3.5-8.747,4.062-11.8,10.979H370.1a19.317,19.317,0,0,1,4.062-6.124c3-2.659,11.2-7.5,15.358-11.894,1.049-1.1,2.159-2.354,3.257-3.623C393.448,270.25,394.132,270.25,394.8,270.274Z" transform="translate(-360.008 -270.238)" fill="#2f2d44"/><path d="M373.158,278.68l4.806,3.281a1.374,1.374,0,0,0,1.635-.073h0a1.366,1.366,0,0,0-.024-2.11l-4.465-3.525a1.354,1.354,0,0,0-1.635-.037l-.342.244A1.345,1.345,0,0,0,373.158,278.68Z" transform="translate(-359.467 -268.982)" fill="#fff"/><path d="M376.758,276.03l4.806,3.281a1.374,1.374,0,0,0,1.635-.073h0a1.366,1.366,0,0,0-.024-2.11L378.71,273.6a1.354,1.354,0,0,0-1.635-.037l-.342.244A1.345,1.345,0,0,0,376.758,276.03Z" transform="translate(-358.676 -269.565)" fill="#fff"/><path d="M416.2,288.595H363.636a1.8,1.8,0,0,1-1.72-2.354c.1-.317.22-.659.342-1h52.735C415.725,287.241,416.2,288.595,416.2,288.595Z" transform="translate(-361.827 -266.942)" fill="#fff"/></g><g transform="translate(21.767 47.271)"><path d="M380.255,273.053l4.721,3.221a1.338,1.338,0,0,0,1.61-.073h0a1.335,1.335,0,0,0-.024-2.074l-4.392-3.464a1.318,1.318,0,0,0-1.6-.037l-.342.244A1.328,1.328,0,0,0,380.255,273.053Z" transform="translate(-379.671 -99.842)" fill="#fff"/><path d="M489.47,181.325c-.11,12.821-.927,38.695-2.428,40.427s-65.605,2.2-67.459-.11,8.893-21.714,8.893-21.714a9.907,9.907,0,0,1-2.2-1.159c-.7-.573.805-3,.805-3a8.258,8.258,0,0,1-2.537-1.037c-.342-.464,2.428-4.038,2.428-4.038s-8.551-29.338-9.82-32.925S413,144.948,414.5,143.216c1.049-1.208,6.917-4.038,10.357-5.624,1.476-.683,2.5-1.134,2.5-1.134s29.423-5.831,30.5-5.868a32.885,32.885,0,0,1,3.989,1.11c7.051,2.184,20.945,6.892,21.738,7.6C484.615,140.2,489.592,168.5,489.47,181.325Z" transform="translate(-372.107 -130.578)" fill="#fcb912"/><path d="M459.907,131.678c-2.293,4.953-7.246,11.979-17.115,13.126-10.5,1.22-16.859-3.83-19.872-7.222,1.476-.683,2.5-1.134,2.5-1.134s29.423-5.831,30.5-5.868A32.845,32.845,0,0,1,459.907,131.678Z" transform="translate(-370.162 -130.58)" fill="#f68e1e"/><g transform="translate(56.47 31.624)"><path d="M427.592,175.877v-.037A.023.023,0,0,0,427.592,175.877Z" transform="translate(-425.606 -152.252)" fill="#fff"/><path d="M468.826,174.431c1.5-1.622-.22-16.066-3.33-17.8-1.561-.866-11.333,2.879-19.177,3.281s-19.067-.647-19.872.793c-1.622,2.891,1.269,13.772,2.184,14.956S467.326,176.054,468.826,174.431Z" transform="translate(-425.962 -156.504)" fill="#f68e1e"/></g></g><g transform="translate(12.849 126.395)"><path d="M494.714,225.388c-3.623,7.49-16.029,7.734-28.875,7.624-1.086-.012-2.184-.012-3.269-.024-4.062-.037-8.088-.049-11.833.183-16.578,1.012-49.381-6.429-48.368-5.416s6.429,52.089,11.5,79.829c-1.464-2.147-5-4.514-9.283-6.795-.476-.256-.964-.5-1.452-.756a214.152,214.152,0,0,0-24.178-9.942l2.1-7.88s-8.564-65.117-8.564-67.142-2.086-18.018,10.223-19.408c15.968-1.793,62.6,8.088,62.6,8.088s8.49-.317,18.445-.512c1.073-.024,2.159-.037,3.257-.061,12.345-.2,25.739-.159,27.679.9C498.434,206.114,499.789,214.9,494.714,225.388Z" transform="translate(-372.36 -195.442)" fill="#1a7db9"/><path d="M397.617,223.694c-.244-.634-4.062-7.624-3.538-8.954s3.294,3.977,3.294,3.977,1.732-6.026,3.464-4.587S397.617,223.694,397.617,223.694Z" transform="translate(-367.596 -191.381)" fill="#1a68a4"/><path d="M461.323,216.739c-5.88.085-11.747-.366-17.615-.732s-11.747-.476-17.6-.793q-7.886-.421-15.773-.854c-2.586-.146-5.16-.3-7.746-.488a77.6,77.6,0,0,0-7.88-.476c-2.245.073-4.135.732-4.623,3.123-.415,2.1.146,4.343.476,6.4.829,5.148,1.586,10.3,2.367,15.444,1.586,10.479,3.172,20.945,4.684,31.424,1.317,9.137,2.4,18.3,3.66,27.435-.476-.256-.964-.5-1.452-.756-.793-4.538-1.647-9.064-2.415-13.6-1.037-6.087-2-12.174-2.977-18.262-1.744-10.893-3.379-21.8-5.062-32.693q-.622-3.989-1.2-7.99a31.415,31.415,0,0,1-.61-6.746,5.921,5.921,0,0,1,2.611-4.709c1.744-1.1,3.806-.964,5.782-.891,10.881.427,21.763.842,32.632,1.342,5.5.256,10.991.708,16.5.927,5.441.22,10.893.354,16.31.988A.965.965,0,0,1,461.323,216.739Z" transform="translate(-369.027 -191.904)" fill="#1a68a4"/><path d="M450.778,201.78c-.061.769-.11,1.549-.159,2.318-.281,4.575-.561,9.137-.744,13.7s-.232,9.1-.293,13.663v.171c-1.086-.012-2.184-.012-3.269-.024-.061-4.575.049-9.161.22-13.736.159-4.611.415-9.222.805-13.821l.183-2.2C448.594,201.817,449.692,201.792,450.778,201.78Z" transform="translate(-356.103 -194.048)" fill="#1a68a4"/><path d="M384.131,204.911c1.208,1.561-3.123,11.613-5.55,11.089s-4.5-8.49-3.806-10.564S382.923,203.349,384.131,204.911Z" transform="translate(-371.859 -193.604)" fill="#1a68a4"/></g><g transform="translate(72.013 134.233)"><path d="M499.589,224.56c-4.5,6.417-23.91,14.382-38.634,20.1s-26.508,16.456-26.508,16.456-5.2-.866-10.052-7.283c-2.452-3.245-3.269-8.051-3.477-12-.037-.708-.049-1.378-.049-2.025a43.486,43.486,0,0,1,.232-4.867c14.029-7.8,58.213-31.192,62.958-32.29a28.217,28.217,0,0,1,4.928-.756,18.345,18.345,0,0,1,2.83.061,12.255,12.255,0,0,1,8.3,4.233C504.786,211.569,504.09,218.156,499.589,224.56Z" transform="translate(-420.858 -201.867)" fill="#3985c3"/><path d="M491.808,201.966c-16.993,8.747-50.015,28.667-53.906,30.912-3.172,1.83-12.04,6.417-16.993,8.966-.037-.708-.049-1.378-.049-2.025a165.617,165.617,0,0,0,17.212-8.5c8.2-4.636,38.048-22.9,50.906-29.411A18.345,18.345,0,0,1,491.808,201.966Z" transform="translate(-420.86 -201.865)" fill="#1a68a4"/></g><g transform="translate(84.818 55.805)"><g transform="translate(22.596)"><path d="M498.578,185.968c-.342,3.464-1.9,6.4-10.918,12.309s-33.437,8.32-33.437,8.32l-4.343-8,28.423-13.65-.793-4.135-1.635-8.515,17.151-6.063C493.039,166.218,498.931,182.5,498.578,185.968Z" transform="translate(-449.88 -131.274)" fill="#f09087"/><path d="M486.839,181.295c-6.758-2.086-13.516,1.037-13.516,1.037l-.793-4.135C476.275,177.708,482.74,177.891,486.839,181.295Z" transform="translate(-444.9 -128.687)" fill="#ef515f"/><path d="M472.51,137.74c-5.1-1.83-9.186,11.967-7.844,21.555s7.234,24.056,7.063,23.556,23.044-8.917,23.044-8.917S481.367,140.924,472.51,137.74Z" transform="translate(-446.685 -137.575)" fill="#f68e1e"/></g><g transform="translate(0 61.487)"><path d="M453.722,191.37a10.033,10.033,0,0,1,3.147,7.283c.085,4.77-8.917,3.379-11.869-1.391C446.305,191.455,453.722,191.37,453.722,191.37Z" transform="translate(-428.357 -187.234)" fill="#f09087"/><path d="M437.326,198.347c-.464.171-5.489.171-5.892.756s.7,3.123,5.258,2.891,5.026-2.891,5.026-2.891a15.161,15.161,0,0,0,4.038,1.439,6.1,6.1,0,0,0,3.867-.7s5.258,2.074,6.185,1.037.927-4.794-1.854-7.563-6.819-3.635-8.722-2.94S437.777,198.164,437.326,198.347Z" transform="translate(-431.357 -187.501)" fill="#ef515f"/><path d="M455.487,192.116c-.586-1.391-2.257.061-2.257.061a2.431,2.431,0,0,0-1.5-2.537c-.659-.244-1.9,1.1-1.9,1.1s.2-2.342-.72-2.684-2.623.61-2.623.61-.622-.2-1.488-.4c-.817-.2-2.733.671-3.489,1.269-2.659,2.135-4.038,5.953-4.5,7.917v.012a1.114,1.114,0,0,0,1.025,1.378l.171.012a1.107,1.107,0,0,0,1.037-.573c1.317-2.33,4.1-5.807,4.648-5.746l1.415.159h0c-.073.232-2.611,8.917-1.708,9.71.927.805,1.415.708,2.2-.634a75.4,75.4,0,0,0,3.123-8.149s-.976,8.551-.293,9.125,1.1.805,1.9,0,1.9-7.856,1.9-7.856.342,8.32,1.854,8.32S456.072,193.506,455.487,192.116Z" transform="translate(-430.122 -187.979)" fill="#f7ab9d"/><path d="M445.238,188.6s-.488.342-1.183,4.026l-1.415-.159,1.11-4.282C444.616,188.41,445.238,188.6,445.238,188.6Z" transform="translate(-428.876 -187.933)" fill="#f09087"/></g></g><g transform="translate(6.664 90.224)"><path d="M367.29,167.864l2.171-2.074,66.361.525,14.382,43.318-1.561,2.159Z" transform="translate(-367.29 -165.79)" fill="#40405a"/><path d="M367.29,167.49l67.057.268,14.3,43.659-66.7-1.988Z" transform="translate(-367.29 -165.416)" fill="#40405a"/><path d="M433.98,204.162H475.5V200.49H434.383Z" transform="translate(-352.626 -158.16)" fill="#2f2d44"/><path d="M408.453,191.022h-13.3a3.8,3.8,0,0,1-3.538-2.4h0a3.808,3.808,0,0,1,3.538-5.209h13.3a3.8,3.8,0,0,1,3.538,2.4h0A3.8,3.8,0,0,1,408.453,191.022Z" transform="translate(-362 -161.916)" fill="#2f2d44"/></g><g transform="translate(61.51)"><g transform="translate(15.505 29.401)"><path d="M455.457,133.789s-4.16,11.5-16.322,11.308a20.852,20.852,0,0,1-14.175-5.441s5.16-2.293,5.868-4.44a16.279,16.279,0,0,0-.146-5.136c-.415-3.318-1.147-6.892-1.147-6.892l13.76-7.258s.354,2.391,1.049,5.233h0c.83,3.391,2.159,7.429,3.952,8.759A33.093,33.093,0,0,0,455.457,133.789Z" transform="translate(-424.96 -115.93)" fill="#f09087"/><path d="M443.517,121.161h0a17.366,17.366,0,0,1-5.343,5.819,16,16,0,0,1-8.307,3.111c-.415-3.318-1.147-6.892-1.147-6.892l13.76-7.258C442.468,115.94,442.822,118.331,443.517,121.161Z" transform="translate(-424.133 -115.928)" fill="#ef515f"/></g><g transform="translate(5.538 23.548)"><path d="M416.79,114.216c0,1.439,1.915,4.782,3.867,5.55a6.208,6.208,0,0,0,2.879.549s-.037-.293-.11-.769c-.024-.171-.061-.366-.1-.573-.488-2.659-1.879-8.332-4.745-7.807C417.046,111.447,416.79,112.776,416.79,114.216Z" transform="translate(-416.79 -111.132)" fill="#f09087"/></g><g transform="translate(0 13.01)"><path d="M412.25,107.222s13.98,11.381,43.891,7.966C445.858,105.551,429.06,96.768,412.25,107.222Z" transform="translate(-412.25 -102.493)" fill="#2f2d44"/></g><path d="M422.271,118.331a13.073,13.073,0,0,1-2.94-2.94c-.866-1.439.11-7.1.11-7.1s-2.72,3.123-2.83,2.074,3.355-6,3.355-6-1.269-3.806-.634-4.331,1.732,1.732,1.732,1.732,2.074-4.9,6.7-5.367,18.945,2.94,21.543,9.015.171,12.992.11,13.162S432.6,122.784,422.271,118.331Z" transform="translate(-411.292 -90.834)" fill="#9f4835"/><g transform="translate(9.576 16.592)"><path d="M444.717,114.089s-.061.817-.2,2.318c-.049.525-.1,1.147-.159,1.842a9.556,9.556,0,0,1-4.855,7.856c-3.7,2.306-7.5,4.16-12.357,4.05-3.855-.1-6.038-12.675-6.77-17.822-.2-1.33-.281-2.159-.281-2.159a17.346,17.346,0,0,0,4.05-4.733c3.574,3.818,14.895,2.2,14.895,2.2a5.049,5.049,0,0,0,.464,2.306c.586,1.391,2.891,1.269,2.891,1.269l.342,2.2Z" transform="translate(-420.1 -105.428)" fill="#f7ab9d"/><path d="M444.715,114.091s-.061.817-.2,2.318a7.345,7.345,0,0,1-1.049-.378c-1.671-.756-1.891-1.464-1.94-3.733-1.2.268-2.916.22-3.672-2.818-6.648,2-9.954.11-13.2-2.159a13.5,13.5,0,0,1-4.27,5c-.2-1.33-.281-2.159-.281-2.159a17.346,17.346,0,0,0,4.05-4.733c3.574,3.818,14.895,2.2,14.895,2.2a5.049,5.049,0,0,0,.464,2.306c.586,1.391,2.891,1.269,2.891,1.269l.342,2.2Z" transform="translate(-420.098 -105.43)" fill="#f09087"/></g><g transform="translate(8.352 21.129)"><path d="M432.35,113.8a1.544,1.544,0,0,0-.537-1.037c-.11-.073-.22-.146-.342-.22a1.555,1.555,0,0,0-.817-.146,1.571,1.571,0,0,0-1.037.537,1.641,1.641,0,0,0-.366,1.147,1.544,1.544,0,0,0,.537,1.037c.11.073.22.146.342.22a1.555,1.555,0,0,0,.817.146,1.571,1.571,0,0,0,1.037-.537A1.518,1.518,0,0,0,432.35,113.8Z" transform="translate(-416.866 -108.436)" fill="#2f2d44"/><path d="M425.04,113.8a1.544,1.544,0,0,0-.537-1.037c-.11-.073-.22-.146-.342-.22a1.555,1.555,0,0,0-.817-.146,1.571,1.571,0,0,0-1.037.537,1.641,1.641,0,0,0-.366,1.147,1.544,1.544,0,0,0,.537,1.037c.11.073.22.146.342.22a1.555,1.555,0,0,0,.817.146,1.551,1.551,0,0,0,1.4-1.683Z" transform="translate(-418.473 -108.436)" fill="#2f2d44"/><path d="M426.609,112.25s1.5,2.428,1.1,4.27a5.637,5.637,0,0,1-2.367,3.062S427.072,117.154,426.609,112.25Z" transform="translate(-417.724 -108.467)" fill="#ef515f"/><path d="M425.32,121.078s1.7,1.635,5.014.83a6.482,6.482,0,0,0,4.892-4.977S431.371,121.688,425.32,121.078Z" transform="translate(-417.728 -107.438)" fill="#ef515f"/><path d="M428.664,117.909c-.207-.708-2.647.171-2.257.439S428.884,118.641,428.664,117.909Z" transform="translate(-417.498 -107.282)" fill="#f09087"/><path d="M428.69,110.931a8.5,8.5,0,0,1,2.854-.525,23.558,23.558,0,0,1,2.9.476,3.429,3.429,0,0,0-3.159-1.732C429.812,109.187,428.69,110.931,428.69,110.931Z" transform="translate(-416.987 -109.149)" fill="#2f2d44"/><path d="M420.79,111.181a8.5,8.5,0,0,1,2.855-.525,23.558,23.558,0,0,1,2.9.476,3.429,3.429,0,0,0-3.159-1.732C421.924,109.437,420.79,111.181,420.79,111.181Z" transform="translate(-418.724 -109.094)" fill="#2f2d44"/><path d="M431.023,118.621c-.183,0-.378,0-.573-.012a3.774,3.774,0,0,1-2.928-2.1,3.9,3.9,0,0,1-.134-3.806,3.2,3.2,0,0,1,2.062-1.378,9.192,9.192,0,0,1,5.794.476,2.434,2.434,0,0,1,1.2,1.635,4.233,4.233,0,0,1-.805,3.208C434.744,117.938,433.146,118.621,431.023,118.621Zm.573-6.648a8.111,8.111,0,0,0-1.927.22,2.438,2.438,0,0,0-1.5.939h0a3.01,3.01,0,0,0,.134,2.916,2.886,2.886,0,0,0,2.184,1.622c1.452.073,3.391-.134,4.379-1.561a3.4,3.4,0,0,0,.671-2.5,1.512,1.512,0,0,0-.769-1.037A7.453,7.453,0,0,0,431.6,111.973Z" transform="translate(-417.369 -108.727)" fill="#2f2d44"/><path d="M424.578,118.621c-2.135,0-3.721-.671-4.611-1.976a4.3,4.3,0,0,1-.805-3.208,2.54,2.54,0,0,1,1.2-1.635,9.192,9.192,0,0,1,5.794-.476,3.142,3.142,0,0,1,2.062,1.378h0a3.9,3.9,0,0,1-.134,3.806,3.793,3.793,0,0,1-2.928,2.1C424.956,118.609,424.761,118.621,424.578,118.621Zm-.586-6.648a7.114,7.114,0,0,0-3.172.61,1.566,1.566,0,0,0-.769,1.037,3.412,3.412,0,0,0,.671,2.5c.988,1.427,2.916,1.635,4.379,1.561a2.877,2.877,0,0,0,2.171-1.622,3.033,3.033,0,0,0,.134-2.928h0a2.438,2.438,0,0,0-1.5-.939A7.934,7.934,0,0,0,423.992,111.973Z" transform="translate(-419.097 -108.727)" fill="#2f2d44"/><path d="M434.319,113.595a.439.439,0,0,1-.415-.317.476.476,0,0,1,.3-.586c.049-.012.22-.073,8.344-1.061a.462.462,0,0,1,.512.4.455.455,0,0,1-.4.512c-3.135.378-7.9.964-8.21,1.025A.263.263,0,0,1,434.319,113.595Z" transform="translate(-415.846 -108.605)" fill="#2f2d44"/></g><g transform="translate(0)"><path d="M456.141,117.533s-6.819-7.039-21.6-9.466c-14.614-2.391-22.116,1.4-22.287,1.5,1.5-3.342,6.807-5.77,6.807-5.77s.549-2.1,1.293-4.294a19.39,19.39,0,0,1,1.83-4.135c1.5-2.2,13.394-4.5,18.591-3.123s11.784,8.661,12.589,10.162c.427.781.146,2.745-.207,4.428-.329,1.537-.72,2.855-.72,2.855Z" transform="translate(-412.25 -91.829)" fill="#40405a"/><path d="M451.936,105.621c-.329,1.537-.72,2.855-.72,2.855a119.147,119.147,0,0,0-15.822-5.428,38.221,38.221,0,0,0-17.554-.464s.549-2.1,1.293-4.294a31.428,31.428,0,0,1,11.638-.671C438.956,98.728,449.435,104.254,451.936,105.621Z" transform="translate(-411.021 -90.615)" fill="#2f2d44"/><path d="M436.346,92.711c.7.525-1.9,2.428-2.83,2.537s-6.185-.525-6.356-1.1S435.651,92.186,436.346,92.711Z" transform="translate(-408.972 -91.66)" fill="#2f2d44"/></g><g transform="translate(32.62 21.197)"><path d="M447.151,112.932c0,1.744-2.318,5.794-4.672,6.722a7.506,7.506,0,0,1-3.489.659s.049-.354.134-.927c.037-.207.073-.439.122-.7.586-3.22,2.269-10.088,5.746-9.442C446.846,109.589,447.151,111.187,447.151,112.932Z" transform="translate(-438.99 -109.205)" fill="#f7ab9d"/><path d="M445.675,113.741s-.329-1.586-1.622-1.7c-1.378-.122-2.586,2.208-2.586,2.208s2.306-.39,2.513,1.378c.159,2.1-3.83,3.208-4.88,3.464.037-.207.073-.439.122-.7.708-.049,2.708-1.269,2.977-2.171.281-.952-.451-1.378-1.781-1.11.805-2.647,2.586-4.66,3.916-4.66C446.541,110.472,445.675,113.741,445.675,113.741Z" transform="translate(-438.966 -108.929)" fill="#ef515f"/></g></g></g></g><g transform="translate(593.25 186.516)"><g transform="translate(46.714 47.023)"><path d="M542.216,191.536l12.04,27.655L566.125,208.8l7.868,2.269S569.456,228,560.136,236.66,539.69,234.122,534.677,224C526.662,207.871,533.908,190.012,542.216,191.536Z" transform="translate(-531.199 -191.445)" fill="#047a86"/><g transform="translate(31.556 7.888)"><path d="M563.087,199.19s-3.33,4.684-3.843,7.124l-.525,2.44a11.856,11.856,0,0,0,4.526,1.281,4.836,4.836,0,0,0,2.611-.7s2.867.525,3.306.256,1.305-3.83,1.305-3.83Z" transform="translate(-556.704 -197.631)" fill="#ef515f"/><path d="M567.4,204.081s1.208-1.037,2.11-.878,4.6,4.477,4.148,4.965-2.781-.964-4.367-3.038c-.976.244-1.732.4-1.732.4Z" transform="translate(-554.796 -196.752)" fill="#ef515f"/><path d="M571.146,210.865c-1.013-.122-3.16-4.44-3.16-4.44s.11,5.636-.793,5.16-2.367-7.2-2.367-7.2.561,7.8-.561,7.075-2.147-7.685-2.147-7.685-.146-1.4-.317-3.074a1.65,1.65,0,0,1,.61-1.5.49.49,0,0,1,.39-.122,2.342,2.342,0,0,1,1.915,2.037c1.915,0,2.037.72,2.489,2.281,1.354-.244,1.464.244,2.147,1.317C570.024,205.815,572.171,210.987,571.146,210.865Z" transform="translate(-556.029 -197.656)" fill="#f7ab9d"/><path d="M561.218,209.072a2.736,2.736,0,0,1-2.147-.049c-1.012-.439-1.4-1.488-1.915-3.159-.366-1.2.525-4.355.525-4.7s.085-2.867.781-3.22,1.562,2.086,1.562,3.574c0,.122-.012.256-.024.39a4.689,4.689,0,0,0,1.647,4.184,2.12,2.12,0,0,1,.561.659A1.588,1.588,0,0,1,561.218,209.072Z" transform="translate(-557.068 -197.912)" fill="#f7ab9d"/></g></g><g transform="translate(135.425 115.208)"><path d="M642.749,267.334l-9.857,12.748-9.039-5.7-10.564-6.648-9.369-5.9,13.041-14.492,6.49,5.038,8.893,6.892Z" transform="translate(-603.92 -247.34)" fill="#f09087"/><path d="M623.45,252.378c-2.6,3.965-6.465,9.8-10.162,15.358l-9.369-5.9,13.041-14.492Z" transform="translate(-603.92 -247.34)" fill="#ef515f"/></g><g transform="translate(155.358 127.138)"><path d="M639.156,265.183l-9.844,12.748-9.051-5.7c3.44-6.087,6.941-12.333,8.49-15.114Z" transform="translate(-620.26 -257.12)" fill="#fff"/><g transform="translate(4.038 2.659)"><path d="M677.464,263.289s-3.452,2.9-8.576,7.2c-.378.317-.756.634-1.147.964-2.2,1.842-4.648,3.9-7.234,6.075-6.051,5.087-12.833,10.784-18.737,15.736a10.4,10.4,0,0,1-2.537-2.342c-2.354-2.842-4.5-7-6.429-8.539-2.6-2.074-9.234-2.476-9.234-2.476s2.232-5.282,4.5-10.881c.171-.415.342-.829.5-1.256,1.257-3.123,2.476-6.221,3.269-8.466,2.781,2.1,15.273,5.587,17.761,5.721,1.708.085,4.514-.829,8.588-1.94,1.854-.512,3.965-1.061,6.368-1.574a18.921,18.921,0,0,1,9.722.39A13.98,13.98,0,0,1,677.464,263.289Z" transform="translate(-623.57 -259.3)" fill="#2f2d44"/><path d="M668.075,268.977c-.378.317-.756.634-1.147.964a17.511,17.511,0,0,0-5.05-2.44c-2.684-.525-14.382,3.672-16.444,4.026-2.6.451-14.724-3-18.164-4.013.171-.415.342-.829.5-1.256,3.879,1.037,14.59,3.818,17.481,3.9,3.538.1,14.858-5.282,18.359-3.708A37.808,37.808,0,0,1,668.075,268.977Z" transform="translate(-622.756 -257.791)" fill="#2f2d44"/><path d="M674.641,262.821s-20.689,17.383-35.694,29.972a10.4,10.4,0,0,1-2.537-2.342l35.035-29.021A13.938,13.938,0,0,1,674.641,262.821Z" transform="translate(-620.747 -258.832)" fill="#fff"/><path d="M671.347,262.973s-7.612,6.392-16.956,14.236c-3.757-5.977-3.281-11.223-2.318-14.443,1.854-.512,3.965-1.061,6.368-1.574a18.921,18.921,0,0,1,9.722.39A13.979,13.979,0,0,1,671.347,262.973Z" transform="translate(-617.453 -258.984)" fill="#fff"/></g></g><path d="M521.51,300.406s26.362,4.343,37.67-.293,45.782-38.536,45.782-38.536l19.128,11.016L638,251.148s-29.558-24.629-33.034-26.362S523.535,290.55,521.51,300.406Z" transform="translate(-486.616 -137.099)" fill="#2f2d44"/><g transform="translate(4.521 32.415)"><path d="M501.428,273.206l3.306-18.457c-8-29.765-10.442-46.477-5.746-57.786,4.453-10.723,6.27-14.8,9.918-16.017a32.65,32.65,0,0,1,6.209-.964c4.66-.4,9.869-.512,9.869-.512s7.941,2.525,8.637,3.22c.427.427,6.307,3.782,10.869,6.831,2.9,1.952,5.258,3.782,5.319,4.66.171,2.269,2.611,16.359,2.781,18.1s3.135,8.7,4.172,13.406-6.734,18.152-7.075,18.676a59.787,59.787,0,0,0,2.684,7.5c3.33,8.551,8.576,21.336,8.576,21.336Z" transform="translate(-496.611 -179.47)" fill="#02b8a6"/></g><path d="M548.97,234.548l1.415,3.025,49.247-13.992,8.539-53.711-3.66.512L596.143,220.1Z" transform="translate(-480.578 -149.166)" fill="#2f2d44"/><g transform="translate(7.974 78.178)"><g transform="translate(104.334 24.697)"><path d="M627.056,273.607l-11,10.723L601.28,270.081,593,262.091l-8.027-7.734,12.711-17.127,9.686,13.15,7.136,8.429Z" transform="translate(-584.97 -237.23)" fill="#f7ab9d"/><path d="M607.367,250.38,593,262.091l-8.027-7.734,12.711-17.127Z" transform="translate(-584.97 -237.23)" fill="#ef515f"/><path d="M624.116,269.719l-11,10.723-14.773-14.26c2.867-2.5,9.918-8.466,13.236-11.272Z" transform="translate(-582.03 -233.343)" fill="#fff"/></g><path d="M623.648,248.867s-5.55,4.892-12.516,10.881c-.6.512-1.2,1.025-1.805,1.549-1.049.9-2.11,1.818-3.184,2.733-4.721-3.708-13.321-15.041-13.321-15.041s-.525.805-1.488,2.208C585.5,259.784,563.74,290.83,548.7,299.5c-17.517,10.1-38.731,6.063-45.477-5.721-3.672-6.441-4.062-14.431-3.647-20.372a52.852,52.852,0,0,1,1.232-8.454l29.35.2s54.614-50.759,61.689-48.063S623.648,248.867,623.648,248.867Z" transform="translate(-499.441 -216.985)" fill="#40405a"/><path d="M608.742,256.621c-.6.512-1.2,1.025-1.805,1.549-4.953-4.526-21.836-22.141-23.788-23.885-6.27,2.745-11.747,9.137-28.716,29.24-11.137,13.2-19.579,19.018-25.312,21.25a10.787,10.787,0,0,1-12.357-3.233,6.132,6.132,0,0,1-.708-1.037s-5.355-8.747-5.746-18.542c11.747.134,17.469.061,17.469.061s2.891,11.223-6.417,16.981a2.036,2.036,0,0,0-.037,3.452c1.293.829,1.647.659,1.647.659s6.392,1.049,16.188-7.966S566.9,244.63,570.23,241.2c5.087-5.221,11.1-9.137,13.968-10.052C590.407,236.835,604.8,252.827,608.742,256.621Z" transform="translate(-497.052 -213.87)" fill="#2f2d44"/><path d="M577.033,244.1s-.525.805-1.488,2.208l-4.355-7.124Z" transform="translate(-483.665 -212.105)" fill="#2f2d44"/><path d="M577.185,219.426c-2.9-.586-6.075,1.879-5.9,3.623s11.516,5.807,12.211,3.891S579.8,219.95,577.185,219.426Z" transform="translate(-483.647 -216.468)" fill="#2f2d44"/><g transform="translate(124.182 51.143)"><path d="M656.952,282.624s-4.379,1.073-10.869,2.672c-.476.122-.964.232-1.464.366-2.781.683-5.892,1.452-9.174,2.257-7.673,1.891-16.273,4-23.763,5.831a10.563,10.563,0,0,1-1.244-3.22c-.854-3.6-.952-8.271-2-10.5-1.415-3.013-7.2-6.295-7.2-6.295s4.343-3.745,8.844-7.771l1.013-.9c2.5-2.245,4.965-4.489,6.673-6.148,1.574,3.111,11.223,11.76,13.406,12.98,1.5.829,4.416,1.256,8.564,2.049,1.891.366,4.026.805,6.4,1.4a19.1,19.1,0,0,1,8.551,4.648A13.736,13.736,0,0,1,656.952,282.624Z" transform="translate(-601.24 -258.91)" fill="#40405a"/><path d="M644.486,284.188c-.476.122-.964.232-1.464.366a17.317,17.317,0,0,0-3.452-4.416c-2.171-1.659-14.517-3.062-16.542-3.66-2.525-.744-11.882-9.2-14.529-11.625l1.013-.9c3.025,2.635,11.406,9.869,13.955,11.223,3.135,1.647,15.663,1.83,18.1,4.782A32.618,32.618,0,0,1,644.486,284.188Z" transform="translate(-599.644 -257.802)" fill="#2f2d44"/><path d="M655.292,278.829s-26.24,6.441-45.257,11.113a10.564,10.564,0,0,1-1.244-3.22l44.257-10.552A14.416,14.416,0,0,1,655.292,278.829Z" transform="translate(-599.58 -255.115)" fill="#fff"/><path d="M650.808,279.918S641.147,282.3,629.3,285.2c-.732-7.026,2.013-11.516,4.306-13.98,1.891.366,4.026.805,6.4,1.4a19.1,19.1,0,0,1,8.551,4.648A14.153,14.153,0,0,1,650.808,279.918Z" transform="translate(-595.096 -256.203)" fill="#fff"/></g></g><g transform="translate(0 34.502)"><path d="M556.906,236.623h-.012a21.169,21.169,0,0,0-3.794,1.6c-25.727,14.626-48.5,14.212-51.686,11.016-3.4-3.4-8.71-18.469-8.5-37.145.3-26.166,14.236-33.913,17.334-29.924,4.306,5.538,4.514,40.854,4.514,40.854a17.262,17.262,0,0,0,2.916,1.7c1.22.488.3,2.55.3,2.55s23.873-2.428,30.619-4.794h0c2.842-1,6.087,1.866,6.356,1.866l3.94,5.209C558.894,229.56,561.615,235.086,556.906,236.623Z" transform="translate(-492.905 -181.181)" fill="#008ea6"/><path d="M547.085,229.217c-1.915.171-4.355.171-7.832-5.392-3.416-5.465-.6-8.625-.476-8.747h0c2.842-1,6.087,1.866,6.356,1.866l3.94,5.209S551.794,227.68,547.085,229.217Z" transform="translate(-483.084 -173.775)" fill="#00818d"/><path d="M512.266,218.96s-9.283,3.977-8.4,6.185,6.636-2.428,6.636-2.428-3.5,8.063-1.147,6.9C514.644,227.792,512.266,218.96,512.266,218.96Z" transform="translate(-490.509 -172.875)" fill="#00818d"/><g transform="translate(59.628 32.93)"><path d="M564.688,218.441c-.464,1.281-9.308-3.952-9.308-3.952s4.087,3.306,5.245,7.441a2.284,2.284,0,0,1,.122.854,1.7,1.7,0,0,1-.622,1.086s.732,2.074-.439,1.866c-.793-.134-3.83-2.806-5.709-4.514a1.441,1.441,0,0,0-2.281.476c-1.025,2.33-3.013,5.953-5.319,5.733-3.379-.329-5.868-2.574-3.891-7.039,0,0,4.819-10.7,7.234-11.6C552.1,207.876,565.152,217.16,564.688,218.441Z" transform="translate(-541.785 -208.055)" fill="#f7ab9d"/><path d="M548.294,208.9s.9-.793,3.318-.72,11.455.817,11.516,2.062-9.174,1.354-11.357.829S547.635,210.047,548.294,208.9Z" transform="translate(-540.383 -208.176)" fill="#f7ab9d"/><path d="M557.861,222.278s-4.111-4.5-5.831-6.368A11.529,11.529,0,0,1,557.861,222.278Z" transform="translate(-539.533 -206.476)" fill="#ef515f"/></g></g><g transform="translate(22.349)"><g transform="translate(6.824)"><path d="M563.907,172.687c-.7,1.086-1.781,10.686-4.257,17.42s-9.2,9.893-9.2,9.893l-1.659-3-10.906-19.762-6.234,14.541a91.736,91.736,0,0,1-11.394-11.491c-1.122-1.342-2.293-2.794-3.44-4.331C525.9,165.99,527.6,153.1,541.059,152.9S565.4,164.184,565.8,166.258C566.176,168.332,563.907,172.687,563.907,172.687Z" transform="translate(-516.82 -152.898)" fill="#2f2d44"/><path d="M558.688,179.064c-1.22,3.135-1.83,6.356-3.83,9.405-1.305,1.988-4.562,4.148-6.685,5.428l-10.906-19.762-6.234,14.541a91.736,91.736,0,0,1-11.394-11.491L528.4,167.06l12.492,3.269s14.748,1.256,20.762-1.757C562.08,172.659,559.9,175.929,558.688,179.064Z" transform="translate(-516.2 -149.784)" fill="#171826"/><path d="M557.511,167.025c-1.988,4.819-.671,10.186-1.11,15.212a12.967,12.967,0,0,1-2.318,6.856,7.722,7.722,0,0,1-2.879,2.354,18.378,18.378,0,0,1-3.342.842c-.159.037-.159.281-.024.354,1.854.866,4.135-.268,5.624-1.427a10.754,10.754,0,0,0,3.562-5.831,25.656,25.656,0,0,0,.464-7.9,38.628,38.628,0,0,1,.3-10.345A.151.151,0,0,0,557.511,167.025Z" transform="translate(-510.021 -149.81)" fill="#2f2d44"/></g><g transform="translate(0 21.359)"><path d="M541.74,193.13c0,4.7-6.27,17.932-10.625,14.626s-18.628-20.189-19.664-23.495a5.8,5.8,0,0,1,.476-4.27c4.66-.4,9.869-.512,9.869-.512s7.941,2.525,8.637,3.22c.427.427,6.307,3.782,10.869,6.831A17.681,17.681,0,0,1,541.74,193.13Z" transform="translate(-511.226 -168.412)" fill="#008ea6"/><path d="M543.5,181.268s-1.757,1.635-3.2,2.806a1.544,1.544,0,0,0-.159.134c-1.476,1.305-4.148,4.867-4.013,5.868a6.228,6.228,0,0,0,.586,2.745,4.7,4.7,0,0,1,.512,3.318c-.817,3.989-2.794,7.173-6.258,7.441-3.025.244-11.442-11.381-15.7-17.542a2.368,2.368,0,0,1,1.647-3.684,26.544,26.544,0,0,0,4.062-.9c3.843-1.134,10.284-5.367,14.126-8.039,1.9-1.33,3.172-2.269,3.172-2.269s3.135-1.561,4.111-.134S543.5,181.268,543.5,181.268Z" transform="translate(-510.428 -170.407)" fill="#f09087"/><path d="M539.851,181.268s-1.757,1.635-3.2,2.806a1.544,1.544,0,0,0-.159.134,27.382,27.382,0,0,1-5.026-10.8c1.9-1.33,3.172-2.269,3.172-2.269s3.135-1.561,4.111-.134S539.851,181.268,539.851,181.268Z" transform="translate(-506.775 -170.407)" fill="#ef515f"/><path d="M521.22,188.794c0,1.281,12.284,4.221,12.467,2.745S521.22,187.5,521.22,188.794Z" transform="translate(-509.029 -166.442)" fill="#ef515f"/></g><g transform="translate(26.522 16.527)"><g transform="translate(2.838 2.493)"><path d="M552.807,177.834a5.22,5.22,0,0,0,.232,3.062.947.947,0,0,1-.525,1.134,3.467,3.467,0,0,1-1.183.317,2.822,2.822,0,0,0-2.354,1.208c-1.476,1.769-3.672,3.965-4.733,4.1-3.391.439-7.88-5.136-8.661-6.77s.134-10.772,1.439-10.637,18.859-1.366,20.762-1.757a8.366,8.366,0,0,1-.342,1.964C556.356,174.114,553.2,176.383,552.807,177.834Z" transform="translate(-535.294 -168.49)" fill="#f7ab9d"/></g><path d="M533.251,168.293c-.268,1.159-.659,4.087.525,5.355a5.98,5.98,0,0,0,2.794,1.525s.073-.232.183-.61c.037-.134.085-.293.134-.464.586-2.171,1.586-6.917-.768-7.539A2.119,2.119,0,0,0,533.251,168.293Z" transform="translate(-532.968 -166.446)" fill="#f7ab9d"/><path d="M534.117,168.867a.177.177,0,0,1-.3-.171c.268-.817.781-1.647,1.671-1.366,1.879.586,1.11,4.5,1.7,5.16-1.366-.586-2.354-.061-2.086.854a.936.936,0,0,1-.2-1.5,1.588,1.588,0,0,1,1.354-.329c-.11-1.525-.39-2.757-1.061-2.989A.927.927,0,0,0,534.117,168.867Z" transform="translate(-532.785 -166.264)" fill="#ef515f"/><path d="M533.76,170.38a2.551,2.551,0,0,0,1.342,2.293c-.146-.854-.2-1.5-.2-1.5s-.561.317-.9-.817A.125.125,0,0,0,533.76,170.38Z" transform="translate(-532.794 -165.606)" fill="#ef515f"/><g transform="translate(10.467 12.972)"><path d="M541.55,177.08a4.787,4.787,0,0,0,1.257,3.452c1.256,1.073,3.428.622,3.428.622A8.23,8.23,0,0,1,541.55,177.08Z" transform="translate(-541.548 -177.08)" fill="#ef515f"/><path d="M541.621,181.359c.171-.61,2-.525,2.306.525S541.451,181.956,541.621,181.359Z" transform="translate(-541.534 -176.223)" fill="#f09087"/></g><g transform="translate(16.556 5.744)"><g transform="translate(0.171 2.386)"><path d="M548.937,173.513a1.343,1.343,0,0,0-.9-.4,1.314,1.314,0,0,0-1.354,1.269,1.315,1.315,0,0,0,.366.952,1.343,1.343,0,0,0,.9.4,1.314,1.314,0,0,0,1.354-1.269A1.368,1.368,0,0,0,548.937,173.513Z" transform="translate(-546.68 -173.11)" fill="#2f2d44"/></g><path d="M546.54,171.722a9.539,9.539,0,0,1,2.83.659,4,4,0,0,1,1.391,1.561,2.4,2.4,0,0,0-.866-2.354A3.226,3.226,0,0,0,546.54,171.722Z" transform="translate(-546.54 -171.154)" fill="#2f2d44"/></g><g transform="translate(17.343 14.625)"><path d="M549.362,178.868c.122-.073-2.049-.744-2.171-.256S549.021,179.088,549.362,178.868Z" transform="translate(-547.185 -178.435)" fill="#f09087"/></g></g></g></g></g><g transform="translate(473.211 2951.768) rotate(-45)" opacity="0.15" clip-path="url(#a)"><g transform="translate(-1518 -205)"><circle cx="3.5" cy="3.5" r="3.5" transform="translate(1518 205)" fill="#666ee3"/></g><g transform="translate(-1500 -205)"><circle cx="3.5" cy="3.5" r="3.5" transform="translate(1518 205)" fill="#666ee3"/></g><g transform="translate(-1482 -205)"><circle cx="3.5" cy="3.5" r="3.5" transform="translate(1518 205)" fill="#666ee3"/></g><g transform="translate(-1464 -205)"><circle cx="3.5" cy="3.5" r="3.5" transform="translate(1518 205)" fill="#666ee3"/></g><g transform="translate(-1446 -205)"><circle cx="3.5" cy="3.5" r="3.5" transform="translate(1518 205)" fill="#666ee3"/></g><g transform="translate(-1428 -205)"><circle cx="3.5" cy="3.5" r="3.5" transform="translate(1518 205)" fill="#666ee3"/></g><g transform="translate(-1410 -205)"><circle cx="3.5" cy="3.5" r="3.5" transform="translate(1518 205)" fill="#666ee3"/></g><g transform="translate(-1392 -205)"><circle cx="3.5" cy="3.5" r="3.5" transform="translate(1518 205)" fill="#666ee3"/></g><g transform="translate(-1374 -205)"><circle cx="3.5" cy="3.5" r="3.5" transform="translate(1518 205)" fill="#666ee3"/></g><g transform="translate(-1518 -178)"><circle cx="3.5" cy="3.5" r="3.5" transform="translate(1518 205)" fill="#666ee3"/></g><g transform="translate(-1500 -178)"><circle cx="3.5" cy="3.5" r="3.5" transform="translate(1518 205)" fill="#666ee3"/></g><g transform="translate(-1482 -178)"><circle cx="3.5" cy="3.5" r="3.5" transform="translate(1518 205)" fill="#666ee3"/></g><g transform="translate(-1464 -178)"><circle cx="3.5" cy="3.5" r="3.5" transform="translate(1518 205)" fill="#666ee3"/></g><g transform="translate(-1446 -178)"><circle cx="3.5" cy="3.5" r="3.5" transform="translate(1518 205)" fill="#666ee3"/></g><g transform="translate(-1428 -178)"><circle cx="3.5" cy="3.5" r="3.5" transform="translate(1518 205)" fill="#666ee3"/></g><g transform="translate(-1410 -178)"><circle cx="3.5" cy="3.5" r="3.5" transform="translate(1518 205)" fill="#666ee3"/></g><g transform="translate(-1392 -178)"><circle cx="3.5" cy="3.5" r="3.5" transform="translate(1518 205)" fill="#666ee3"/></g><g transform="translate(-1374 -178)"><circle cx="3.5" cy="3.5" r="3.5" transform="translate(1518 205)" fill="#666ee3"/></g><g transform="translate(-1518 -151)"><circle cx="3.5" cy="3.5" r="3.5" transform="translate(1518 205)" fill="#666ee3"/></g><g transform="translate(-1500 -151)"><circle cx="3.5" cy="3.5" r="3.5" transform="translate(1518 205)" fill="#666ee3"/></g><g transform="translate(-1482 -151)"><circle cx="3.5" cy="3.5" r="3.5" transform="translate(1518 205)" fill="#666ee3"/></g><g transform="translate(-1464 -151)"><circle cx="3.5" cy="3.5" r="3.5" transform="translate(1518 205)" fill="#666ee3"/></g><g transform="translate(-1446 -151)"><circle cx="3.5" cy="3.5" r="3.5" transform="translate(1518 205)" fill="#666ee3"/></g><g transform="translate(-1428 -151)"><circle cx="3.5" cy="3.5" r="3.5" transform="translate(1518 205)" fill="#666ee3"/></g><g transform="translate(-1410 -151)"><circle cx="3.5" cy="3.5" r="3.5" transform="translate(1518 205)" fill="#666ee3"/></g><g transform="translate(-1392 -151)"><circle cx="3.5" cy="3.5" r="3.5" transform="translate(1518 205)" fill="#666ee3"/></g><g transform="translate(-1374 -151)"><circle cx="3.5" cy="3.5" r="3.5" transform="translate(1518 205)" fill="#666ee3"/></g><g transform="translate(-1518 -124)"><circle cx="3.5" cy="3.5" r="3.5" transform="translate(1518 205)" fill="#666ee3"/></g><g transform="translate(-1500 -124)"><circle cx="3.5" cy="3.5" r="3.5" transform="translate(1518 205)" fill="#666ee3"/></g><g transform="translate(-1482 -124)"><circle cx="3.5" cy="3.5" r="3.5" transform="translate(1518 205)" fill="#666ee3"/></g><g transform="translate(-1464 -124)"><circle cx="3.5" cy="3.5" r="3.5" transform="translate(1518 205)" fill="#666ee3"/></g><g transform="translate(-1446 -124)"><circle cx="3.5" cy="3.5" r="3.5" transform="translate(1518 205)" fill="#666ee3"/></g><g transform="translate(-1428 -124)"><circle cx="3.5" cy="3.5" r="3.5" transform="translate(1518 205)" fill="#666ee3"/></g><g transform="translate(-1410 -124)"><circle cx="3.5" cy="3.5" r="3.5" transform="translate(1518 205)" fill="#666ee3"/></g><g transform="translate(-1392 -124)"><circle cx="3.5" cy="3.5" r="3.5" transform="translate(1518 205)" fill="#666ee3"/></g><g transform="translate(-1374 -124)"><circle cx="3.5" cy="3.5" r="3.5" transform="translate(1518 205)" fill="#666ee3"/></g><g transform="translate(-1518 -97)"><circle cx="3.5" cy="3.5" r="3.5" transform="translate(1518 205)" fill="#666ee3"/></g><g transform="translate(-1500 -97)"><circle cx="3.5" cy="3.5" r="3.5" transform="translate(1518 205)" fill="#666ee3"/></g><g transform="translate(-1482 -97)"><circle cx="3.5" cy="3.5" r="3.5" transform="translate(1518 205)" fill="#666ee3"/></g><g transform="translate(-1464 -97)"><circle cx="3.5" cy="3.5" r="3.5" transform="translate(1518 205)" fill="#666ee3"/></g><g transform="translate(-1446 -97)"><circle cx="3.5" cy="3.5" r="3.5" transform="translate(1518 205)" fill="#666ee3"/></g><g transform="translate(-1428 -97)"><circle cx="3.5" cy="3.5" r="3.5" transform="translate(1518 205)" fill="#666ee3"/></g><g transform="translate(-1410 -97)"><circle cx="3.5" cy="3.5" r="3.5" transform="translate(1518 205)" fill="#666ee3"/></g><g transform="translate(-1392 -97)"><circle cx="3.5" cy="3.5" r="3.5" transform="translate(1518 205)" fill="#666ee3"/></g><g transform="translate(-1374 -97)"><circle cx="3.5" cy="3.5" r="3.5" transform="translate(1518 205)" fill="#666ee3"/></g><g transform="translate(-1518 -70)"><circle cx="3.5" cy="3.5" r="3.5" transform="translate(1518 205)" fill="#666ee3"/></g><g transform="translate(-1500 -70)"><circle cx="3.5" cy="3.5" r="3.5" transform="translate(1518 205)" fill="#666ee3"/></g><g transform="translate(-1482 -70)"><circle cx="3.5" cy="3.5" r="3.5" transform="translate(1518 205)" fill="#666ee3"/></g><g transform="translate(-1464 -70)"><circle cx="3.5" cy="3.5" r="3.5" transform="translate(1518 205)" fill="#666ee3"/></g><g transform="translate(-1446 -70)"><circle cx="3.5" cy="3.5" r="3.5" transform="translate(1518 205)" fill="#666ee3"/></g><g transform="translate(-1428 -70)"><circle cx="3.5" cy="3.5" r="3.5" transform="translate(1518 205)" fill="#666ee3"/></g><g transform="translate(-1410 -70)"><circle cx="3.5" cy="3.5" r="3.5" transform="translate(1518 205)" fill="#666ee3"/></g><g transform="translate(-1392 -70)"><circle cx="3.5" cy="3.5" r="3.5" transform="translate(1518 205)" fill="#666ee3"/></g><g transform="translate(-1374 -70)"><circle cx="3.5" cy="3.5" r="3.5" transform="translate(1518 205)" fill="#666ee3"/></g></g></g></svg>