<svg width="191" height="48" viewBox="0 0 191 48" fill="none" xmlns="http://www.w3.org/2000/svg">
<g clip-path="url(#clip0)">
<path d="M0.660727 34.4453V34.4836L0.679779 34.4651H0.704646L0.678876 34.4888L0.70615 34.5165H0.680681L0.660727 34.4955V34.5165H0.642578V34.4453H0.660727Z" fill="#4CD155"/>
<path d="M0.702445 34.4906C0.702445 34.4923 0.702746 34.4938 0.703347 34.4952C0.703949 34.4968 0.704751 34.498 0.705854 34.4991C0.706857 34.5002 0.70806 34.501 0.709564 34.5016C0.710968 34.5022 0.712472 34.5025 0.714177 34.5025C0.715781 34.5025 0.717285 34.5022 0.718789 34.5016C0.720193 34.501 0.721396 34.5002 0.722499 34.4991C0.723502 34.498 0.724304 34.4968 0.725006 34.4953C0.725608 34.4939 0.725908 34.4924 0.725908 34.4908C0.725908 34.4892 0.725608 34.4877 0.725006 34.4862C0.724304 34.4848 0.723502 34.4836 0.722499 34.4825C0.721396 34.4814 0.720193 34.4806 0.718789 34.48C0.717285 34.4794 0.715781 34.4791 0.714177 34.4791C0.712572 34.4791 0.711068 34.4794 0.709664 34.48C0.70816 34.4806 0.706957 34.4814 0.705954 34.4825C0.704851 34.4836 0.704049 34.4848 0.703448 34.4861C0.702746 34.4875 0.702445 34.489 0.702445 34.4906ZM0.725307 34.4453H0.743556V34.5165H0.725307V34.5108C0.721396 34.5157 0.716182 34.5181 0.709564 34.5181C0.705854 34.5181 0.702345 34.5174 0.699236 34.516C0.696128 34.5146 0.69332 34.5127 0.691014 34.5102C0.688708 34.5077 0.686903 34.5048 0.685599 34.5015C0.684296 34.4982 0.683594 34.4945 0.683594 34.4906C0.683594 34.4869 0.684195 34.4835 0.685499 34.4801C0.686702 34.4768 0.688407 34.474 0.690713 34.4715C0.693019 34.469 0.695727 34.4671 0.698935 34.4656C0.702044 34.4642 0.705553 34.4635 0.709364 34.4635C0.715781 34.4635 0.721095 34.4657 0.725307 34.4702V34.4453Z" fill="#4CD155"/>
<path d="M0.753906 34.3906C0.753906 34.389 0.754207 34.3875 0.754809 34.386C0.75541 34.3846 0.756212 34.3834 0.757315 34.3823C0.758418 34.3812 0.759622 34.3804 0.761126 34.3798C0.76253 34.3792 0.764034 34.3789 0.765638 34.3789C0.767242 34.3789 0.768746 34.3792 0.770251 34.3798C0.771654 34.3804 0.772858 34.3812 0.773961 34.3823C0.775064 34.3834 0.775866 34.3846 0.776467 34.386C0.777069 34.3875 0.77737 34.389 0.77737 34.3906C0.77737 34.3922 0.777069 34.3937 0.776467 34.3952C0.775866 34.3967 0.775064 34.3979 0.773961 34.399C0.772858 34.4001 0.771654 34.4009 0.770251 34.4015C0.768746 34.4021 0.767242 34.4024 0.765638 34.4024C0.764034 34.4024 0.76253 34.4021 0.761126 34.4015C0.759622 34.4009 0.758418 34.4001 0.757315 34.399C0.756212 34.3979 0.75541 34.3967 0.754809 34.3952C0.754207 34.3937 0.753906 34.3922 0.753906 34.3906Z" fill="#838383"/>
<path d="M0.783238 34.4453H0.797577L0.766192 34.5186H0.751953L0.783238 34.4453Z" fill="#838383"/>
<path d="M0.809073 34.4802V34.5165H0.790924V34.4802H0.783203V34.4651H0.790924V34.4453H0.809073V34.4651H0.819401V34.4802H0.809073Z" fill="#838383"/>
<path d="M0.829899 34.4675V34.5189H0.81175V34.4675H0.829899ZM0.810547 34.4477C0.810547 34.4463 0.810848 34.445 0.811349 34.4437C0.81185 34.4425 0.812653 34.4414 0.813555 34.4405C0.814457 34.4396 0.81556 34.4388 0.816864 34.4383C0.818067 34.4378 0.819371 34.4375 0.820775 34.4375C0.822178 34.4375 0.823482 34.4378 0.824785 34.4383C0.825989 34.4388 0.827092 34.4396 0.827994 34.4405C0.828897 34.4414 0.829699 34.4425 0.8302 34.4437C0.830701 34.445 0.831002 34.4463 0.831002 34.4477C0.831002 34.4491 0.830701 34.4504 0.8302 34.4516C0.829699 34.4529 0.828897 34.454 0.827994 34.4549C0.827092 34.4558 0.825989 34.4567 0.824785 34.4572C0.823482 34.4577 0.822178 34.458 0.820775 34.458C0.819371 34.458 0.818067 34.4577 0.816864 34.4572C0.81556 34.4567 0.814457 34.4558 0.813555 34.4549C0.812653 34.454 0.81185 34.4529 0.811349 34.4516C0.810848 34.4504 0.810547 34.4491 0.810547 34.4477Z" fill="#838383"/>
<path d="M0.86121 34.4453H0.875549L0.84627 34.5165H0.832031L0.86121 34.4453Z" fill="#838383"/>
</g>
<path d="M33.6257 47.5425L23.9108 34.1702V47.5425H14.1387V5.25391H23.9108V28.6269L33.5686 15.6546H45.6265L32.3685 31.6557L45.7408 47.5425H33.6257Z" fill="white"/>
<path d="M44.9819 31.5414C44.9819 28.265 45.5915 25.3886 46.8106 22.9122C48.0678 20.4359 49.7632 18.531 51.8966 17.1976C54.0301 15.8642 56.4112 15.1974 59.04 15.1974C61.1354 15.1974 63.0403 15.6356 64.7547 16.5118C66.5072 17.3881 67.8787 18.5691 68.8692 20.0549V5.25391H78.6413V47.5425H68.8692V42.9708C67.9549 44.4947 66.6405 45.7138 64.9261 46.6281C63.2498 47.5425 61.2878 47.9997 59.04 47.9997C56.4112 47.9997 54.0301 47.333 51.8966 45.9995C49.7632 44.628 48.0678 42.7041 46.8106 40.2277C45.5915 37.7133 44.9819 34.8178 44.9819 31.5414ZM68.8692 31.5986C68.8692 29.1603 68.1835 27.2363 66.8119 25.8267C65.4785 24.4171 63.8403 23.7123 61.8973 23.7123C59.9543 23.7123 58.2971 24.4171 56.9256 25.8267C55.5921 27.1983 54.9254 29.1031 54.9254 31.5414C54.9254 33.9797 55.5921 35.9227 56.9256 37.3704C58.2971 38.78 59.9543 39.4848 61.8973 39.4848C63.8403 39.4848 65.4785 38.78 66.8119 37.3704C68.1835 35.9608 68.8692 34.0368 68.8692 31.5986Z" fill="white"/>
<path d="M145.004 39.2562V47.5425H140.033C136.489 47.5425 133.727 46.6853 131.746 44.9709C129.765 43.2184 128.775 40.3801 128.775 36.456V23.7694H124.889V15.6546H128.775V5.63477H138.547V15.6546H144.947V23.7694H138.547V36.5703C138.547 37.5228 138.775 38.2085 139.233 38.6276C139.69 39.0467 140.452 39.2562 141.518 39.2562H145.004Z" fill="white"/>
<path d="M160.22 15.6546V47.5425H150.448V15.6546H160.22Z" fill="white"/>
<circle cx="89.0124" cy="42.1452" r="5.39719" fill="white"/>
<circle cx="155.05" cy="5.39719" r="5.39719" fill="white"/>
<path d="M113.46 5H122.984L107.745 47.5426H98.2207L113.46 5Z" fill="white"/>
<path d="M181.399 5H190.924L175.685 47.5426H166.16L181.399 5Z" fill="white"/>
<defs>
<clipPath id="clip0">
</clipPath>
</defs>
</svg>
