<svg width="194" height="49" viewBox="0 0 194 49" fill="none" xmlns="http://www.w3.org/2000/svg">
<g clip-path="url(#clip0)">
<path d="M0.551352 35.0703V35.1086L0.570404 35.0901H0.595271L0.569501 35.1138L0.596775 35.1415H0.571306L0.551352 35.1205V35.1415H0.533203V35.0703H0.551352Z" fill="#4CD155"/>
<path d="M0.595023 35.1156C0.595023 35.1173 0.595324 35.1188 0.595925 35.1202C0.596527 35.1218 0.597329 35.123 0.598432 35.1241C0.599435 35.1252 0.600638 35.126 0.602142 35.1266C0.603546 35.1272 0.60505 35.1275 0.606755 35.1275C0.608359 35.1275 0.609863 35.1272 0.611367 35.1266C0.612771 35.126 0.613974 35.1252 0.615077 35.1241C0.61608 35.123 0.616882 35.1218 0.617584 35.1203C0.618186 35.1189 0.618486 35.1174 0.618486 35.1158C0.618486 35.1142 0.618186 35.1127 0.617584 35.1112C0.616882 35.1098 0.61608 35.1086 0.615077 35.1075C0.613974 35.1064 0.612771 35.1056 0.611367 35.105C0.609863 35.1044 0.608359 35.1041 0.606755 35.1041C0.60515 35.1041 0.603646 35.1044 0.602242 35.105C0.600738 35.1056 0.599535 35.1064 0.598532 35.1075C0.597429 35.1086 0.596627 35.1098 0.596026 35.1111C0.595324 35.1125 0.595023 35.114 0.595023 35.1156ZM0.617885 35.0703H0.636134V35.1415H0.617885V35.1358C0.613974 35.1407 0.60876 35.1431 0.602142 35.1431C0.598432 35.1431 0.594923 35.1424 0.591814 35.141C0.588706 35.1396 0.585898 35.1377 0.583592 35.1352C0.581286 35.1327 0.579481 35.1298 0.578177 35.1265C0.576874 35.1232 0.576172 35.1195 0.576172 35.1156C0.576172 35.1119 0.576774 35.1085 0.578077 35.1051C0.57928 35.1018 0.580985 35.099 0.583291 35.0965C0.585597 35.094 0.588305 35.0921 0.591513 35.0906C0.594622 35.0892 0.598131 35.0885 0.601942 35.0885C0.608359 35.0885 0.613673 35.0907 0.617885 35.0952V35.0703Z" fill="#4CD155"/>
<path d="M0.642578 35.0293C0.642578 35.0277 0.642879 35.0262 0.643481 35.0247C0.644082 35.0233 0.644884 35.0221 0.645987 35.021C0.64709 35.0199 0.648294 35.0191 0.649798 35.0185C0.651201 35.0179 0.652706 35.0176 0.65431 35.0176C0.655914 35.0176 0.657418 35.0179 0.658922 35.0185C0.660326 35.0191 0.661529 35.0199 0.662632 35.021C0.663735 35.0221 0.664538 35.0233 0.665139 35.0247C0.665741 35.0262 0.666042 35.0277 0.666042 35.0293C0.666042 35.0309 0.665741 35.0324 0.665139 35.0338C0.664538 35.0353 0.663735 35.0365 0.662632 35.0376C0.661529 35.0387 0.660326 35.0395 0.658922 35.0401C0.657418 35.0407 0.655914 35.041 0.65431 35.041C0.652706 35.041 0.651201 35.0407 0.649798 35.0401C0.648294 35.0395 0.64709 35.0387 0.645987 35.0376C0.644884 35.0365 0.644082 35.0353 0.643481 35.0338C0.642879 35.0324 0.642578 35.0309 0.642578 35.0293Z" fill="#838383"/>
<path d="M0.673863 35.0703H0.688202L0.656817 35.1436H0.642578L0.673863 35.0703Z" fill="#838383"/>
<path d="M0.701651 35.1052V35.1415H0.683502V35.1052H0.675781V35.0901H0.683502V35.0703H0.701651V35.0901H0.711979V35.1052H0.701651Z" fill="#838383"/>
<path d="M0.722477 35.0925V35.1439H0.704328V35.0925H0.722477ZM0.703125 35.0727C0.703125 35.0713 0.703426 35.07 0.703927 35.0687C0.704429 35.0675 0.705231 35.0664 0.706133 35.0655C0.707036 35.0646 0.708139 35.0638 0.709442 35.0633C0.710645 35.0628 0.711949 35.0625 0.713353 35.0625C0.714757 35.0625 0.71606 35.0628 0.717364 35.0633C0.718567 35.0638 0.71967 35.0646 0.720572 35.0655C0.721475 35.0664 0.722277 35.0675 0.722778 35.0687C0.72328 35.07 0.72358 35.0713 0.72358 35.0727C0.72358 35.0741 0.72328 35.0754 0.722778 35.0766C0.722277 35.0779 0.721475 35.079 0.720572 35.0799C0.71967 35.0808 0.718567 35.0817 0.717364 35.0822C0.71606 35.0827 0.714757 35.083 0.713353 35.083C0.711949 35.083 0.710645 35.0827 0.709442 35.0822C0.708139 35.0817 0.707036 35.0808 0.706133 35.0799C0.705231 35.079 0.704429 35.0779 0.703927 35.0766C0.703426 35.0754 0.703125 35.0741 0.703125 35.0727Z" fill="#838383"/>
<path d="M0.753788 35.0703H0.768127L0.738848 35.1415H0.724609L0.753788 35.0703Z" fill="#838383"/>
</g>
<path d="M34.0387 48.3782L24.1695 34.7935V48.3782H14.2422V5.41797H24.1695V29.1622L33.9807 15.9839H46.2301L32.7615 32.2391L46.3462 48.3782H34.0387Z" fill="#38B744"/>
<path d="M45.5752 32.123C45.5752 28.7945 46.1945 25.8724 47.433 23.3568C48.7102 20.8411 50.4325 18.9059 52.5998 17.5513C54.7672 16.1967 57.1861 15.5194 59.8566 15.5194C61.9853 15.5194 63.9204 15.9645 65.662 16.8547C67.4424 17.7448 68.8357 18.9446 69.842 20.454V5.41797H79.7693V48.3782H69.842V43.7338C68.9131 45.282 67.5778 46.5204 65.8362 47.4493C64.1333 48.3782 62.1401 48.8426 59.8566 48.8426C57.1861 48.8426 54.7672 48.1653 52.5998 46.8107C50.4325 45.4174 48.7102 43.4629 47.433 40.9472C46.1945 38.3928 45.5752 35.4514 45.5752 32.123ZM69.842 32.181C69.842 29.704 69.1453 27.7495 67.752 26.3175C66.3974 24.8855 64.7332 24.1695 62.7593 24.1695C60.7855 24.1695 59.1019 24.8855 57.7086 26.3175C56.354 27.7108 55.6767 29.646 55.6767 32.123C55.6767 34.6 56.354 36.5738 57.7086 38.0445C59.1019 39.4765 60.7855 40.1925 62.7593 40.1925C64.7332 40.1925 66.3974 39.4765 67.752 38.0445C69.1453 36.6125 69.842 34.658 69.842 32.181Z" fill="#38B744"/>
<path d="M147.187 39.9601V48.378H142.136C138.537 48.378 135.731 47.5072 133.718 45.7655C131.706 43.9852 130.7 41.1018 130.7 37.1154V24.2274H126.752V15.9837H130.7V5.80469H140.627V15.9837H147.129V24.2274H140.627V37.2315C140.627 38.1991 140.859 38.8958 141.324 39.3215C141.788 39.7472 142.562 39.9601 143.646 39.9601H147.187Z" fill="#939393"/>
<path d="M162.644 15.9837V48.378H152.717V15.9837H162.644Z" fill="#939393"/>
<circle cx="90.3071" cy="42.895" r="5.48291" fill="#939393"/>
<circle cx="157.391" cy="5.48291" r="5.48291" fill="#939393"/>
<path d="M115.141 5.16211H124.817L109.336 48.3803H99.6602L115.141 5.16211Z" fill="#939393"/>
<path d="M184.161 5.16211H193.837L178.355 48.3803H168.68L184.161 5.16211Z" fill="#939393"/>
<defs>
<clipPath id="clip0">
</clipPath>
</defs>
</svg>
