<svg xmlns="http://www.w3.org/2000/svg" xmlns:xlink="http://www.w3.org/1999/xlink" width="144.25" height="144.25" viewBox="0 0 144.25 144.25"><defs><clipPath id="a"><rect width="104" height="100" fill="none"/></clipPath></defs><g transform="translate(0 73.539) rotate(-45)" opacity="0.25" clip-path="url(#a)"><g transform="translate(-1518 -205)"><circle cx="3.5" cy="3.5" r="3.5" transform="translate(1518 205)" fill="#666ee3"/></g><g transform="translate(-1500 -205)"><circle cx="3.5" cy="3.5" r="3.5" transform="translate(1518 205)" fill="#666ee3"/></g><g transform="translate(-1482 -205)"><circle cx="3.5" cy="3.5" r="3.5" transform="translate(1518 205)" fill="#666ee3"/></g><g transform="translate(-1464 -205)"><circle cx="3.5" cy="3.5" r="3.5" transform="translate(1518 205)" fill="#666ee3"/></g><g transform="translate(-1446 -205)"><circle cx="3.5" cy="3.5" r="3.5" transform="translate(1518 205)" fill="#666ee3"/></g><g transform="translate(-1428 -205)"><circle cx="3.5" cy="3.5" r="3.5" transform="translate(1518 205)" fill="#666ee3"/></g><g transform="translate(-1518 -183)"><circle cx="3.5" cy="3.5" r="3.5" transform="translate(1518 205)" fill="#666ee3"/></g><g transform="translate(-1500 -183)"><circle cx="3.5" cy="3.5" r="3.5" transform="translate(1518 205)" fill="#666ee3"/></g><g transform="translate(-1482 -183)"><circle cx="3.5" cy="3.5" r="3.5" transform="translate(1518 205)" fill="#666ee3"/></g><g transform="translate(-1464 -183)"><circle cx="3.5" cy="3.5" r="3.5" transform="translate(1518 205)" fill="#666ee3"/></g><g transform="translate(-1446 -183)"><circle cx="3.5" cy="3.5" r="3.5" transform="translate(1518 205)" fill="#666ee3"/></g><g transform="translate(-1428 -183)"><circle cx="3.5" cy="3.5" r="3.5" transform="translate(1518 205)" fill="#666ee3"/></g><g transform="translate(-1518 -161)"><circle cx="3.5" cy="3.5" r="3.5" transform="translate(1518 205)" fill="#666ee3"/></g><g transform="translate(-1500 -161)"><circle cx="3.5" cy="3.5" r="3.5" transform="translate(1518 205)" fill="#666ee3"/></g><g transform="translate(-1482 -161)"><circle cx="3.5" cy="3.5" r="3.5" transform="translate(1518 205)" fill="#666ee3"/></g><g transform="translate(-1464 -161)"><circle cx="3.5" cy="3.5" r="3.5" transform="translate(1518 205)" fill="#666ee3"/></g><g transform="translate(-1446 -161)"><circle cx="3.5" cy="3.5" r="3.5" transform="translate(1518 205)" fill="#666ee3"/></g><g transform="translate(-1428 -161)"><circle cx="3.5" cy="3.5" r="3.5" transform="translate(1518 205)" fill="#666ee3"/></g><g transform="translate(-1518 -139)"><circle cx="3.5" cy="3.5" r="3.5" transform="translate(1518 205)" fill="#666ee3"/></g><g transform="translate(-1500 -139)"><circle cx="3.5" cy="3.5" r="3.5" transform="translate(1518 205)" fill="#666ee3"/></g><g transform="translate(-1482 -139)"><circle cx="3.5" cy="3.5" r="3.5" transform="translate(1518 205)" fill="#666ee3"/></g><g transform="translate(-1464 -139)"><circle cx="3.5" cy="3.5" r="3.5" transform="translate(1518 205)" fill="#666ee3"/></g><g transform="translate(-1446 -139)"><circle cx="3.5" cy="3.5" r="3.5" transform="translate(1518 205)" fill="#666ee3"/></g><g transform="translate(-1428 -139)"><circle cx="3.5" cy="3.5" r="3.5" transform="translate(1518 205)" fill="#666ee3"/></g><g transform="translate(-1518 -117)"><circle cx="3.5" cy="3.5" r="3.5" transform="translate(1518 205)" fill="#666ee3"/></g><g transform="translate(-1500 -117)"><circle cx="3.5" cy="3.5" r="3.5" transform="translate(1518 205)" fill="#666ee3"/></g><g transform="translate(-1482 -117)"><circle cx="3.5" cy="3.5" r="3.5" transform="translate(1518 205)" fill="#666ee3"/></g><g transform="translate(-1464 -117)"><circle cx="3.5" cy="3.5" r="3.5" transform="translate(1518 205)" fill="#666ee3"/></g><g transform="translate(-1446 -117)"><circle cx="3.5" cy="3.5" r="3.5" transform="translate(1518 205)" fill="#666ee3"/></g><g transform="translate(-1428 -117)"><circle cx="3.5" cy="3.5" r="3.5" transform="translate(1518 205)" fill="#666ee3"/></g></g></svg>