<svg xmlns="http://www.w3.org/2000/svg" xmlns:xlink="http://www.w3.org/1999/xlink" width="1624.608" height="1144.363" viewBox="0 0 1624.608 1144.363"><defs><linearGradient id="a" x1="0.277" y1="-0.113" x2="0.757" y2="1.01" gradientUnits="objectBoundingBox"><stop offset="0" stop-color="#57f"/><stop offset="0.711" stop-color="#40d4e6"/><stop offset="1" stop-color="#40d5e6"/></linearGradient><linearGradient id="b" x1="0.277" y1="-0.113" x2="0.757" y2="1.01" gradientUnits="objectBoundingBox"><stop offset="0" stop-color="#57f"/><stop offset="0.577" stop-color="#40d4e6"/><stop offset="1" stop-color="#40d5e6"/></linearGradient><clipPath id="c"><rect width="206" height="193" fill="none"/></clipPath><clipPath id="d"><path d="M3167.306,0s-4.131,382.985,313.5,397.529c112.4,6.464,182.6-27.472,182.6-27.472s117.966-58.175,172.909,37.167-140.59,433.081,287.643,504.183S4634.608,581.75,4634.608,581.75L4380.9-40.4H3159.226Z" transform="translate(-2404)" fill="url(#a)"/></clipPath><radialGradient id="e" cx="0.235" cy="0.662" r="0.706" gradientTransform="matrix(0.999, -0.041, 0.036, 0.889, -0.024, 0.087)" gradientUnits="objectBoundingBox"><stop offset="0" stop-color="#57f"/><stop offset="0.64" stop-color="#4ba4f3"/><stop offset="1" stop-color="#48daeb"/></radialGradient><radialGradient id="f" cx="0.235" cy="0.662" r="0.706" gradientTransform="matrix(0.999, -0.041, 0.036, 0.889, -0.024, 0.087)" gradientUnits="objectBoundingBox"><stop offset="0" stop-color="#57f"/><stop offset="0.64" stop-color="#4ba4f3"/><stop offset="1" stop-color="#40d5e6"/></radialGradient><clipPath id="g"><rect width="144" height="132" fill="none"/></clipPath></defs><g transform="translate(-606 224.5)"><path d="M3167.306,0s-4.131,382.985,313.5,397.529c112.4,6.464,182.6-27.472,182.6-27.472s117.966-58.175,172.909,37.167-140.59,433.081,287.643,504.183S4634.608,581.75,4634.608,581.75L4380.9-40.4H3159.226Z" transform="translate(-2404)" fill="url(#b)"/><g transform="translate(1743.908 480) rotate(39)" opacity="0.25" clip-path="url(#c)"><g transform="translate(-1518 -205)"><circle cx="3.5" cy="3.5" r="3.5" transform="translate(1518 205)" fill="#fff"/></g><g transform="translate(-1492 -205)"><circle cx="3.5" cy="3.5" r="3.5" transform="translate(1518 205)" fill="#fff"/></g><g transform="translate(-1466 -205)"><circle cx="3.5" cy="3.5" r="3.5" transform="translate(1518 205)" fill="#fff"/></g><g transform="translate(-1440 -205)"><circle cx="3.5" cy="3.5" r="3.5" transform="translate(1518 205)" fill="#fff"/></g><g transform="translate(-1414 -205)"><circle cx="3.5" cy="3.5" r="3.5" transform="translate(1518 205)" fill="#fff"/></g><g transform="translate(-1388 -205)"><circle cx="3.5" cy="3.5" r="3.5" transform="translate(1518 205)" fill="#fff"/></g><g transform="translate(-1362 -205)"><circle cx="3.5" cy="3.5" r="3.5" transform="translate(1518 205)" fill="#fff"/></g><g transform="translate(-1336 -205)"><circle cx="3.5" cy="3.5" r="3.5" transform="translate(1518 205)" fill="#fff"/></g><g transform="translate(-1518 -175)"><circle cx="3.5" cy="3.5" r="3.5" transform="translate(1518 205)" fill="#fff"/></g><g transform="translate(-1492 -175)"><circle cx="3.5" cy="3.5" r="3.5" transform="translate(1518 205)" fill="#fff"/></g><g transform="translate(-1466 -175)"><circle cx="3.5" cy="3.5" r="3.5" transform="translate(1518 205)" fill="#fff"/></g><g transform="translate(-1440 -175)"><circle cx="3.5" cy="3.5" r="3.5" transform="translate(1518 205)" fill="#fff"/></g><g transform="translate(-1414 -175)"><circle cx="3.5" cy="3.5" r="3.5" transform="translate(1518 205)" fill="#fff"/></g><g transform="translate(-1388 -175)"><circle cx="3.5" cy="3.5" r="3.5" transform="translate(1518 205)" fill="#fff"/></g><g transform="translate(-1362 -175)"><circle cx="3.5" cy="3.5" r="3.5" transform="translate(1518 205)" fill="#fff"/></g><g transform="translate(-1336 -175)"><circle cx="3.5" cy="3.5" r="3.5" transform="translate(1518 205)" fill="#fff"/></g><g transform="translate(-1518 -145)"><circle cx="3.5" cy="3.5" r="3.5" transform="translate(1518 205)" fill="#fff"/></g><g transform="translate(-1492 -145)"><circle cx="3.5" cy="3.5" r="3.5" transform="translate(1518 205)" fill="#fff"/></g><g transform="translate(-1466 -145)"><circle cx="3.5" cy="3.5" r="3.5" transform="translate(1518 205)" fill="#fff"/></g><g transform="translate(-1440 -145)"><circle cx="3.5" cy="3.5" r="3.5" transform="translate(1518 205)" fill="#fff"/></g><g transform="translate(-1414 -145)"><circle cx="3.5" cy="3.5" r="3.5" transform="translate(1518 205)" fill="#fff"/></g><g transform="translate(-1388 -145)"><circle cx="3.5" cy="3.5" r="3.5" transform="translate(1518 205)" fill="#fff"/></g><g transform="translate(-1362 -145)"><circle cx="3.5" cy="3.5" r="3.5" transform="translate(1518 205)" fill="#fff"/></g><g transform="translate(-1336 -145)"><circle cx="3.5" cy="3.5" r="3.5" transform="translate(1518 205)" fill="#fff"/></g><g transform="translate(-1518 -115)"><circle cx="3.5" cy="3.5" r="3.5" transform="translate(1518 205)" fill="#fff"/></g><g transform="translate(-1492 -115)"><circle cx="3.5" cy="3.5" r="3.5" transform="translate(1518 205)" fill="#fff"/></g><g transform="translate(-1466 -115)"><circle cx="3.5" cy="3.5" r="3.5" transform="translate(1518 205)" fill="#fff"/></g><g transform="translate(-1440 -115)"><circle cx="3.5" cy="3.5" r="3.5" transform="translate(1518 205)" fill="#fff"/></g><g transform="translate(-1414 -115)"><circle cx="3.5" cy="3.5" r="3.5" transform="translate(1518 205)" fill="#fff"/></g><g transform="translate(-1388 -115)"><circle cx="3.5" cy="3.5" r="3.5" transform="translate(1518 205)" fill="#fff"/></g><g transform="translate(-1362 -115)"><circle cx="3.5" cy="3.5" r="3.5" transform="translate(1518 205)" fill="#fff"/></g><g transform="translate(-1336 -115)"><circle cx="3.5" cy="3.5" r="3.5" transform="translate(1518 205)" fill="#fff"/></g><g transform="translate(-1518 -85)"><circle cx="3.5" cy="3.5" r="3.5" transform="translate(1518 205)" fill="#fff"/></g><g transform="translate(-1492 -85)"><circle cx="3.5" cy="3.5" r="3.5" transform="translate(1518 205)" fill="#fff"/></g><g transform="translate(-1466 -85)"><circle cx="3.5" cy="3.5" r="3.5" transform="translate(1518 205)" fill="#fff"/></g><g transform="translate(-1440 -85)"><circle cx="3.5" cy="3.5" r="3.5" transform="translate(1518 205)" fill="#fff"/></g><g transform="translate(-1414 -85)"><circle cx="3.5" cy="3.5" r="3.5" transform="translate(1518 205)" fill="#fff"/></g><g transform="translate(-1388 -85)"><circle cx="3.5" cy="3.5" r="3.5" transform="translate(1518 205)" fill="#fff"/></g><g transform="translate(-1362 -85)"><circle cx="3.5" cy="3.5" r="3.5" transform="translate(1518 205)" fill="#fff"/></g><g transform="translate(-1336 -85)"><circle cx="3.5" cy="3.5" r="3.5" transform="translate(1518 205)" fill="#fff"/></g><g transform="translate(-1518 -55)"><circle cx="3.5" cy="3.5" r="3.5" transform="translate(1518 205)" fill="#fff"/></g><g transform="translate(-1492 -55)"><circle cx="3.5" cy="3.5" r="3.5" transform="translate(1518 205)" fill="#fff"/></g><g transform="translate(-1466 -55)"><circle cx="3.5" cy="3.5" r="3.5" transform="translate(1518 205)" fill="#fff"/></g><g transform="translate(-1440 -55)"><circle cx="3.5" cy="3.5" r="3.5" transform="translate(1518 205)" fill="#fff"/></g><g transform="translate(-1414 -55)"><circle cx="3.5" cy="3.5" r="3.5" transform="translate(1518 205)" fill="#fff"/></g><g transform="translate(-1388 -55)"><circle cx="3.5" cy="3.5" r="3.5" transform="translate(1518 205)" fill="#fff"/></g><g transform="translate(-1362 -55)"><circle cx="3.5" cy="3.5" r="3.5" transform="translate(1518 205)" fill="#fff"/></g><g transform="translate(-1336 -55)"><circle cx="3.5" cy="3.5" r="3.5" transform="translate(1518 205)" fill="#fff"/></g><g transform="translate(-1518 -25)"><circle cx="3.5" cy="3.5" r="3.5" transform="translate(1518 205)" fill="#fff"/></g><g transform="translate(-1492 -25)"><circle cx="3.5" cy="3.5" r="3.5" transform="translate(1518 205)" fill="#fff"/></g><g transform="translate(-1466 -25)"><circle cx="3.5" cy="3.5" r="3.5" transform="translate(1518 205)" fill="#fff"/></g><g transform="translate(-1440 -25)"><circle cx="3.5" cy="3.5" r="3.5" transform="translate(1518 205)" fill="#fff"/></g><g transform="translate(-1414 -25)"><circle cx="3.5" cy="3.5" r="3.5" transform="translate(1518 205)" fill="#fff"/></g><g transform="translate(-1388 -25)"><circle cx="3.5" cy="3.5" r="3.5" transform="translate(1518 205)" fill="#fff"/></g><g transform="translate(-1362 -25)"><circle cx="3.5" cy="3.5" r="3.5" transform="translate(1518 205)" fill="#fff"/></g><g transform="translate(-1336 -25)"><circle cx="3.5" cy="3.5" r="3.5" transform="translate(1518 205)" fill="#fff"/></g></g><g clip-path="url(#d)"><circle cx="224.5" cy="224.5" r="224.5" transform="translate(1563.94 1023.071) rotate(-82)" fill="url(#e)"/></g><circle cx="224.5" cy="224.5" r="224.5" transform="translate(606 -224.5)" fill="url(#f)"/><g transform="translate(1039 164.951) rotate(-11)" opacity="0.25" clip-path="url(#g)"><g transform="translate(-1518 -205)"><circle cx="3.5" cy="3.5" r="3.5" transform="translate(1518 205)" fill="#fff"/></g><g transform="translate(-1492 -205)"><circle cx="3.5" cy="3.5" r="3.5" transform="translate(1518 205)" fill="#fff"/></g><g transform="translate(-1466 -205)"><circle cx="3.5" cy="3.5" r="3.5" transform="translate(1518 205)" fill="#fff"/></g><g transform="translate(-1440 -205)"><circle cx="3.5" cy="3.5" r="3.5" transform="translate(1518 205)" fill="#fff"/></g><g transform="translate(-1414 -205)"><circle cx="3.5" cy="3.5" r="3.5" transform="translate(1518 205)" fill="#fff"/></g><g transform="translate(-1388 -205)"><circle cx="3.5" cy="3.5" r="3.5" transform="translate(1518 205)" fill="#fff"/></g><g transform="translate(-1518 -175)"><circle cx="3.5" cy="3.5" r="3.5" transform="translate(1518 205)" fill="#fff"/></g><g transform="translate(-1492 -175)"><circle cx="3.5" cy="3.5" r="3.5" transform="translate(1518 205)" fill="#fff"/></g><g transform="translate(-1466 -175)"><circle cx="3.5" cy="3.5" r="3.5" transform="translate(1518 205)" fill="#fff"/></g><g transform="translate(-1440 -175)"><circle cx="3.5" cy="3.5" r="3.5" transform="translate(1518 205)" fill="#fff"/></g><g transform="translate(-1414 -175)"><circle cx="3.5" cy="3.5" r="3.5" transform="translate(1518 205)" fill="#fff"/></g><g transform="translate(-1388 -175)"><circle cx="3.5" cy="3.5" r="3.5" transform="translate(1518 205)" fill="#fff"/></g><g transform="translate(-1518 -145)"><circle cx="3.5" cy="3.5" r="3.5" transform="translate(1518 205)" fill="#fff"/></g><g transform="translate(-1492 -145)"><circle cx="3.5" cy="3.5" r="3.5" transform="translate(1518 205)" fill="#fff"/></g><g transform="translate(-1466 -145)"><circle cx="3.5" cy="3.5" r="3.5" transform="translate(1518 205)" fill="#fff"/></g><g transform="translate(-1440 -145)"><circle cx="3.5" cy="3.5" r="3.5" transform="translate(1518 205)" fill="#fff"/></g><g transform="translate(-1414 -145)"><circle cx="3.5" cy="3.5" r="3.5" transform="translate(1518 205)" fill="#fff"/></g><g transform="translate(-1388 -145)"><circle cx="3.5" cy="3.5" r="3.5" transform="translate(1518 205)" fill="#fff"/></g><g transform="translate(-1518 -115)"><circle cx="3.5" cy="3.5" r="3.5" transform="translate(1518 205)" fill="#fff"/></g><g transform="translate(-1492 -115)"><circle cx="3.5" cy="3.5" r="3.5" transform="translate(1518 205)" fill="#fff"/></g><g transform="translate(-1466 -115)"><circle cx="3.5" cy="3.5" r="3.5" transform="translate(1518 205)" fill="#fff"/></g><g transform="translate(-1440 -115)"><circle cx="3.5" cy="3.5" r="3.5" transform="translate(1518 205)" fill="#fff"/></g><g transform="translate(-1414 -115)"><circle cx="3.5" cy="3.5" r="3.5" transform="translate(1518 205)" fill="#fff"/></g><g transform="translate(-1388 -115)"><circle cx="3.5" cy="3.5" r="3.5" transform="translate(1518 205)" fill="#fff"/></g><g transform="translate(-1518 -85)"><circle cx="3.5" cy="3.5" r="3.5" transform="translate(1518 205)" fill="#fff"/></g><g transform="translate(-1492 -85)"><circle cx="3.5" cy="3.5" r="3.5" transform="translate(1518 205)" fill="#fff"/></g><g transform="translate(-1466 -85)"><circle cx="3.5" cy="3.5" r="3.5" transform="translate(1518 205)" fill="#fff"/></g><g transform="translate(-1440 -85)"><circle cx="3.5" cy="3.5" r="3.5" transform="translate(1518 205)" fill="#fff"/></g><g transform="translate(-1414 -85)"><circle cx="3.5" cy="3.5" r="3.5" transform="translate(1518 205)" fill="#fff"/></g><g transform="translate(-1388 -85)"><circle cx="3.5" cy="3.5" r="3.5" transform="translate(1518 205)" fill="#fff"/></g></g></g></svg>