<svg id="b976bd8f-b438-4ec7-9dbf-0fc03a613a4f" data-name="Layer 1" xmlns="http://www.w3.org/2000/svg" width="972.00528" height="593.59399" viewBox="0 0 972.00528 593.59399"><title>phone_call</title><path d="M481.561,526.20173c-.40313-.40052-9.96782-10.08672-18.07556-33.07012-7.43792-21.0862-14.94385-57.85707-8.45807-113.28941,12.28757-105.01306-50.72165-171.93815-51.36061-172.602l1.86512-1.79112c.16194.16836,16.36241,17.19852,30.77613,47.09578a231.447,231.447,0,0,1,21.28751,127.59805C445.32916,484.97665,483.00321,523.98764,483.385,524.37Z" transform="translate(-113.99736 -153.203)" fill="#f2f2f2"/><circle cx="270.3219" cy="35.47425" r="16.80326" fill="#f2f2f2"/><circle cx="336.5207" cy="83.17636" r="16.80326" fill="#f2f2f2"/><circle cx="311.17274" cy="131.94234" r="16.80326" fill="#f2f2f2"/><circle cx="362.14347" cy="155.42146" r="16.80326" fill="#f2f2f2"/><circle cx="319.77064" cy="221.64958" r="16.80326" fill="#f2f2f2"/><path d="M491.56916,524.39479s-26.13457-36.19584,15.4785-78.28893Z" transform="translate(-113.99736 -153.203)" fill="#f2f2f2"/><path d="M471.31553,528.56765s-17.86209-40.91578-75.27249-26.51021Z" transform="translate(-113.99736 -153.203)" fill="#f2f2f2"/><path d="M798.22818,657.25736c-.07073-.84746-1.57073-21.16311,11.49019-55.21545C821.70178,570.801,848.825,521.62379,909.995,464.75929c115.88353-107.72552,109.02451-245.10833,108.94061-246.48464l3.86277-.23118c.02118.34893,1.95656,35.47-10.62744,83.51771A346.35287,346.35287,0,0,1,912.62932,467.5935C796.94389,575.13531,802.01947,656.134,802.08354,656.94Z" transform="translate(-113.99736 -153.203)" fill="#f2f2f2"/><circle cx="900.90435" cy="25.15099" r="25.14552" fill="#f2f2f2"/><circle cx="930.04756" cy="143.72658" r="25.14552" fill="#f2f2f2"/><circle cx="853.85454" cy="174.69564" r="25.14552" fill="#f2f2f2"/><circle cx="889.14875" cy="250.89844" r="25.14552" fill="#f2f2f2"/><circle cx="776.61664" cy="285.24551" r="25.14552" fill="#f2f2f2"/><path d="M811.38409,664.90851s5.3407-66.59559,93.59136-74.18146Z" transform="translate(-113.99736 -153.203)" fill="#f2f2f2"/><path d="M784.25955,650.01281s19.34526-63.9473-60.04172-103.23384Z" transform="translate(-113.99736 -153.203)" fill="#f2f2f2"/><path d="M235.418,593.57864c-8.38218,30.98558-37.093,50.17573-37.093,50.17573s-15.12066-31.0474-6.73848-62.033,37.093-50.17572,37.093-50.17572S243.80013,562.59307,235.418,593.57864Z" transform="translate(-113.99736 -153.203)" fill="#6c63ff"/><path d="M159.16348,593.57864c8.38219,30.98558,37.09305,50.17573,37.09305,50.17573s15.12066-31.0474,6.73848-62.033-37.093-50.17572-37.093-50.17572S150.7813,562.59307,159.16348,593.57864Z" transform="translate(-113.99736 -153.203)" fill="#6c63ff"/><path d="M171.48051,586.91951c23.00082,22.39038,25.81021,56.8096,25.81021,56.8096s-34.48232-1.88275-57.48315-24.27313-25.81021-56.8096-25.81021-56.8096S148.47968,564.52913,171.48051,586.91951Z" transform="translate(-113.99736 -153.203)" fill="#3f3d56"/><path d="M223.10093,586.91951c-23.00083,22.39038-25.81021,56.8096-25.81021,56.8096s34.48232-1.88275,57.48315-24.27313,25.81021-56.8096,25.81021-56.8096S246.10176,564.52913,223.10093,586.91951Z" transform="translate(-113.99736 -153.203)" fill="#3f3d56"/><rect x="8.49572" y="557.12968" width="963.50956" height="2.24072" fill="#2f2e41"/><path d="M631.04766,366.203s-10-10-33-8c0,0-222-23-227,18s-6,65,7,74c0,0,42.5,38.5,20.5,72.5l-12,20,471-4s5-73,20-87,20-88,0-90S625.54766,348.703,631.04766,366.203Z" transform="translate(-113.99736 -153.203)" fill="#3f3d56"/><path d="M382.54766,447.703s-141,33-85,95l9,9-4,138h650l7-135,8-16s49.81889-59.75012-94.09056-81.37506L847.54766,522.703l-438-3S406.54766,445.703,382.54766,447.703Z" transform="translate(-113.99736 -153.203)" fill="#3f3d56"/><rect x="200.5503" y="527.5" width="41" height="31" fill="#3f3d56"/><rect x="790.5503" y="527.5" width="41" height="31" fill="#3f3d56"/><path d="M623.44136,523.203s-97.8937-69.5-219.8937.5l-36,52,7,43s253,4,256-23S623.44136,523.203,623.44136,523.203Z" transform="translate(-113.99736 -153.203)" fill="#3f3d56"/><path d="M852.54766,523.703s-171.75244-55-223.37622,0l6.37622,79s251,19,255,6,6-36,6-36Z" transform="translate(-113.99736 -153.203)" fill="#3f3d56"/><path d="M852.54766,523.703s-171.75245-55-223.37623,0l.14222,1.76209c-.16944-.81757-.266-1.26209-.266-1.26209s-103.5-70.5-225.5-.5l-36,52,7,43s244.98413,5.21125,260.72363-19.42468l.27637,3.42468s251,19,255,6,6-36,6-36Z" transform="translate(-113.99736 -153.203)" opacity="0.1"/><path d="M386.54766,385.703c48.603-1.03375,94.67907-7.20208,137-21,1.02941,48.6807,8.02856,94.2092,24,135-47.31458-8.598-95.33558-.0896-144,24C412.288,479.69693,404.73149,433.43539,386.54766,385.703Z" transform="translate(-113.99736 -153.203)" fill="#6c63ff"/><path d="M883.54766,393.703c-48.603-1.03375-94.67908-7.20208-137-21-1.02942,48.6807-8.02857,94.2092-24,135,47.31457-8.598,95.33557-.0896,144,24C857.8073,487.69693,865.36382,441.43539,883.54766,393.703Z" transform="translate(-113.99736 -153.203)" fill="#6c63ff"/><path d="M571.41968,380.92764a33.83968,33.83968,0,0,1,9.2634-4.64548,236.20567,236.20567,0,0,1,65.26843-14.2079c19.40737-1.37621,40.44152.25838,55.59969,12.4555a19.11765,19.11765,0,0,1,5.63983,6.57068c1.907,4.11521,1.32909,8.89872.71173,13.39212a15.133,15.133,0,0,1-1.29867,5.04159c-2.03978,3.88373-7.06181,5.24425-11.42384,4.77855s-8.45511-2.31131-12.75765-3.167a57.02679,57.02679,0,0,0-8.05768-.82059l-26.98461-1.46089c-16.78-.90843-33.7811-1.80174-50.24091,1.58481a50.04414,50.04414,0,0,0-14.51562,5.002c-3.75947,2.11073-6.291,5.13947-9.77939,1.24085C566.71585,399.8426,563.32356,387.254,571.41968,380.92764Z" transform="translate(-113.99736 -153.203)" fill="#2f2e41"/><path d="M613.235,392.86068s36.29535-16.27033,50.06255,2.50312-7.50938,11.26408-7.50938,11.26408l-23.77972,7.50938L605.72564,409.131Z" transform="translate(-113.99736 -153.203)" fill="#f2f2f2"/><path d="M615.11237,380.97082s5.00626,23.77971,1.25157,30.03753,21.27658,15.01877,21.27658,15.01877l23.77971-10.01251s-6.25782-38.79848,0-46.30786Z" transform="translate(-113.99736 -153.203)" fill="#ffb9b9"/><path d="M615.11237,380.97082s5.00626,23.77971,1.25157,30.03753,21.27658,15.01877,21.27658,15.01877l23.77971-10.01251s-6.25782-38.79848,0-46.30786Z" transform="translate(-113.99736 -153.203)" opacity="0.1"/><path d="M591.66016,666.9058c3.58076,6.86518,5.9017,14.30252,8.27062,21.67414a1.76326,1.76326,0,0,0,2.19056,1.45706l22.26192-.02477c2.74729-.00305,6.43328-.88568,6.40473-3.63282-.02007-1.93017-1.99313-3.13373-3.46152-4.38665-4.07524-3.47725-5.13619-9.21074-6.824-14.295a48.49722,48.49722,0,0,0-18.04518-24.23658,10.56122,10.56122,0,0,0-3.85777-1.90672,10.75566,10.75566,0,0,0-4.22941.22948c-3.90786.78843-18.50123,3.4861-15.74445,9.17031,1.187,2.44746,5.586,4.99515,7.43035,7.28156A52.29493,52.29493,0,0,1,591.66016,666.9058Z" transform="translate(-113.99736 -153.203)" fill="#575a89"/><path d="M669.07355,641.08619a50.58125,50.58125,0,0,1-2.61718,4.81123c-3.22516,5.31921-7.03115,10.28107-10.03451,15.72858-1.87337,3.39792-3.4503,7.07052-3.65735,10.94511s1.15763,7.99861,4.24858,10.34411c3.23168,2.45229,7.66234,2.56578,11.67869,1.99447s8.00943-1.72248,12.05487-1.41938c-1.36391-7.71825,5.14536-14.51111,6.77334-22.178.45727-2.15349.52521-4.38625,1.13811-6.50072a31.86149,31.86149,0,0,1,2.5196-5.5715,72.03615,72.03615,0,0,0,6.79861-20.05159c.1533-.84661-19.78885-.98544-21.6595-.58089C670.47911,629.87007,671.33294,636.24547,669.07355,641.08619Z" transform="translate(-113.99736 -153.203)" fill="#575a89"/><path d="M515.36826,519.82987c-5.69295,8.909-4.38123,20.71541-.38281,30.50283s10.36227,18.43966,14.71789,28.07343c2.77679,6.14172,4.724,12.65384,7.85085,18.62493,3.872,7.394,9.52529,13.91125,12.12352,21.84295,1.65624,5.05607,2.03621,10.59753,4.71915,15.192a46.55984,46.55984,0,0,0,5.52767,6.85777,63.37242,63.37242,0,0,1,12.74057,22.75737c2.452-7.30468,9.79481-12.09409,17.33637-13.67384s15.35581-.50662,22.98532.5711c-4.256-6.59313-8.55317-13.27-11.09013-20.69608-2.45362-7.18219-3.17754-14.82319-4.83031-22.23079-3.38929-15.19053-10.6296-29.2014-17.79736-43.01671l36.84192-2.92225a143.63786,143.63786,0,0,1,18.10091-.67137c9.50937.44824,18.82533,2.77934,28.28408,3.85676s19.4649.79528,27.89429-3.629a133.67277,133.67277,0,0,0-23.98341,78.94292,30.56426,30.56426,0,0,1,46.26707,10.91875c14.43812-19.73008,12.72168-47.19734,24.16229-68.804,2.35251-4.44293,5.23563-8.58128,7.77469-12.9203,5.02179-8.5818,8.66362-17.88626,12.28433-27.14672,3.20033-8.18527,6.42409-17.293,3.35467-25.52821a26.65414,26.65414,0,0,0-5.46934-8.41068c-6.601-7.27754-15.78889-12.661-25.61162-12.88517-15.07893-.34418-27.53545,10.83305-40.76279,18.0808-15.58012,8.53692-33.75635,11.93023-51.47765,10.67547-18.16917-1.28648-35.52166-7.23391-52.832-12.47169a251.37052,251.37052,0,0,0-26.36673-6.80163c-7.42322-1.39243-14.493.15-21.80833,2.04829C527.95682,509.03355,519.95211,512.65649,515.36826,519.82987Z" transform="translate(-113.99736 -153.203)" fill="#2f2e41"/><path d="M672.68431,357.19111A37.5777,37.5777,0,0,1,635.13739,394.738a36.64322,36.64322,0,0,1-6.67085-.60072,37.54538,37.54538,0,1,1,44.21777-36.94619Z" transform="translate(-113.99736 -153.203)" fill="#ffb9b9"/><path d="M613.235,392.86068s6.8836,3.12891,9.38672,5.632,10.01252,16.27033,22.52815,7.50939,13.76721-13.7672,17.5219-13.7672,8.76094,7.50938,8.76094,7.50938l34.418,103.254a144.1476,144.1476,0,0,1-31.91488,26.90862c-20.025,12.51564-43.80473,18.77346-55.06881,13.7672s-32.54066-8.76095-36.29535-18.77346-10.01251-40.05-10.01251-40.05l17.52189-76.34539Z" transform="translate(-113.99736 -153.203)" fill="#f2f2f2"/><path d="M608.40261,497.28874c2.7286-5.89382,3.12541-12.56507,3.35622-19.05576a115.5142,115.5142,0,0,0-.50937-19.277c-1.10915-8.37194-3.83541-16.4375-5.55717-24.70521a104.44262,104.44262,0,0,1-2.18873-22.049c.02511-3.3796.26977-6.93742,2.11137-9.77129,1.28477-1.977,3.29437-3.50818,4.0972-5.72508,1.57415-4.34684-2.3153-8.89829-6.57779-10.68832-5.07078-2.12947-10.86646-1.98651-16.20146-.65035s-10.311,3.79411-15.23975,6.23441c-3.56041,1.76281-7.19641,3.57993-9.95724,6.43683-3.885,4.0202-5.59333,9.61952-6.97273,15.03733-1.104,4.33628-2.08523,8.858-1.24523,13.25307,1.36407,7.13711,7.18226,12.505,10.28387,19.07605,3.60165,7.63046,3.35908,16.52257,1.92655,24.83784s-3.97562,16.44554-4.75981,24.84678.4196,17.43206,5.68306,24.02686c2.14491,2.68744,7.96354,9.05652,11.89015,8.3359,3.08478-.56612,7.55708-7.35677,10.04207-9.5093C595.76259,511.72408,604.28027,506.19306,608.40261,497.28874Z" transform="translate(-113.99736 -153.203)" fill="#2f2e41"/><path d="M673.97547,388.77905c.10959,6.98035-2.96726,13.61538-6.58587,19.58555s-7.8692,11.61656-10.53578,18.06843a41.41276,41.41276,0,0,0-1.93293,25.47742,82.19746,82.19746,0,0,0,2.76118,8.52516l6.8573,18.80947a32.64739,32.64739,0,0,0,3.97643,8.34864,26.96053,26.96053,0,0,0,5.40422,5.19875,50.437,50.437,0,0,0,17.63244,9.19867c6.45211,1.70509,13.5114,1.5981,19.607-1.11853a283.7228,283.7228,0,0,1,12.17915-75.19592c1.371-4.505,2.86936-9.24789,1.81176-13.83665-1.18463-5.13989-5.31321-8.99889-9.23772-12.5231-12.0021-10.77792-25.20051-22.09908-41.266-23.55206C665.34855,374.924,673.89624,383.73248,673.97547,388.77905Z" transform="translate(-113.99736 -153.203)" fill="#2f2e41"/><path d="M591.84218,534.29143c.95191,1.8633,1.54438,3.89266,2.48569,5.76134a32.18913,32.18913,0,0,0,5.10681,6.867c8.36826,9.279,18.59741,18.52267,31.08,19.08238a8.52253,8.52253,0,0,0,3.66329-.46109c2.18371-.90794,3.47374-3.24754,3.89857-5.574.88507-4.84687-1.25446-9.68314-3.39666-14.12009-4.64288-9.6164-9.867-19.47671-18.5599-25.67874-8.5691-6.11373-20.051-7.59838-30.04421-4.52-4.52814,1.3949-12.03662,3.83072-6.04144,7.962C584.58248,526.74431,589.20537,529.13013,591.84218,534.29143Z" transform="translate(-113.99736 -153.203)" fill="#ffb9b9"/><path d="M599.35078,685.7462c-3.73128,5.07054-2.98315,12.31868-6.28835,17.67671-2.865,4.64443-8.2644,7.07963-11.84795,11.19509a30.00975,30.00975,0,0,0-3.04609,4.38179c-3.32426,5.56825-6.02627,12.70465-2.75232,18.30262,2.6337,4.50324,8.16962,6.26326,13.24669,7.46282,6.4171,1.51616,13.08452,2.7296,19.57572,1.571s12.83514-5.13335,15.14958-11.3076a43.68252,43.68252,0,0,1,1.61985-4.57108c3.5183-6.92638,14.55387-7.00124,18.15459-13.88514,2.51985-4.81748.20348-10.64068-2.11191-15.55969l-7.07175-15.02382c-2.34679-4.98574-11.86036-2.1185-16.82-3.31325C610.69044,681.11746,604.00414,679.40072,599.35078,685.7462Z" transform="translate(-113.99736 -153.203)" fill="#2f2e41"/><path d="M654.04889,672.83972c-3.00095,2.1032-4.941,5.40322-6.39837,8.76553-3.49983,8.07436-4.70181,16.926-5.86883,25.64852-.46752,3.4944-.93262,7.07082-.2024,10.51991,1.50814,7.1235,7.9632,12.36912,14.91121,14.54718s14.40006,1.84273,21.67271,1.486c2.33584-.11459,4.76454-.25444,6.81258-1.38351,3.65509-2.015,5.083-6.753,4.45621-10.87934s-2.88106-7.7979-5.08771-11.34059-4.46306-7.21227-5.09506-11.33786c-1.0631-6.93982,1.93687-17.12677-2.32662-23.4053C672.64989,669.1681,659.75117,668.84332,654.04889,672.83972Z" transform="translate(-113.99736 -153.203)" fill="#2f2e41"/><path d="M671.73983,337.62366a9.53037,9.53037,0,0,0-4.13351-5.39539,21.87249,21.87249,0,0,0-.87275-7.12025c-2.2738-6.72219-7.6604-6.33688-12.74282-9.30889-2.20505-1.28945-2.06885-2.42911-3.21675-4.547a16.87588,16.87588,0,0,0-6.50265-6.63465c-3.26068-2.07749-6.70264-4.217-10.56-4.47993-8.10629-.55253-14.32149,7.07205-22.06936,9.51911-3.41506,1.07854-7.08466,1.123-10.51775,2.14265s-6.85824,3.45432-7.3699,6.99887c-.23619,1.63641.18051,3.31515-.059,4.9511-.47629,3.25152-3.329,5.52876-5.23864,8.20315-4.223,5.91407-3.73994,14.269-.36285,20.70374a29.10153,29.10153,0,0,0,2.43515,3.81069,23.441,23.441,0,0,0,2.57111,8.70495c3.3771,6.43474,9.18827,11.24315,15.25878,15.238a36.01561,36.01561,0,0,1-.9004-6.49784,4.4824,4.4824,0,0,1,.2763-2.153c.676-1.4132,2.46241-1.789,3.82443-2.563,2.82107-1.60311,3.92734-5.15086,4.00892-8.39459s-.60584-6.49279-.266-9.71963a5.3109,5.3109,0,0,1,1.81807-3.90671,6.27971,6.27971,0,0,1,3.42767-.81721c5.78008-.23582,11.81935-.342,16.91773-3.07536,1.73923-.93249,3.35617-2.16572,5.26567-2.6637,4.33281-1.12988,8.76118,1.907,11.25827,5.62379s3.74209,8.13982,6.046,11.97938,6.2841,7.26356,10.7386,6.80867a1.78264,1.78264,0,0,0,1.33032-.59156,1.99416,1.99416,0,0,0,.245-1.13339l.24888-17.02751A25.73684,25.73684,0,0,0,671.73983,337.62366Z" transform="translate(-113.99736 -153.203)" fill="#2f2e41"/><path d="M552.91528,426.69164c-3.58239,5.28506-7.713,10.36666-9.6821,16.44021-1.15738,3.56982-1.51681,7.34355-2.35474,11.00156-2.79095,12.18406-10.854,23.00592-11.66443,35.47925a16.86834,16.86834,0,0,0,1.18465,8.14637c2.313,5.03124,7.84851,7.68282,13.12878,9.3507s10.95083,2.86958,15.16547,6.46123a46.47522,46.47522,0,0,1,5.74667,6.66207,55.66537,55.66537,0,0,0,26.58928,18.19242c-.82649-5.69488-1.21435-12.55909,3.338-16.07918,2.46424-1.90547,5.757-2.24462,8.86043-2.51282l14.66444-1.26731a188.441,188.441,0,0,0-32.14612-25.04221c-4.05493-2.50494-8.46834-5.14723-10.31986-9.53916-1.15749-2.74562-1.14165-5.821-1.1691-8.80055a216.86339,216.86339,0,0,0-2.76252-32.55644c-1.20719-7.47625-2.80572-14.88574-4.63393-22.23483-.51324-2.06315-3.54669-11.31741-7.28053-9.152-.87949.51-1.70237,6.38049-2.2159,7.59858A46.0858,46.0858,0,0,1,552.91528,426.69164Z" transform="translate(-113.99736 -153.203)" fill="#2f2e41"/><path d="M573.20858,442.73557a57.44129,57.44129,0,0,1-5.48795,25.59709,21.15171,21.15171,0,0,0-2.149,5.63877c-.65691,4.20772,1.73771,8.28126,4.4746,11.54406A47.46874,47.46874,0,0,0,590.342,499.6352" transform="translate(-113.99736 -153.203)" opacity="0.1"/><path d="M666.64083,397.88677l.88327.13981a2.95059,2.95059,0,0,1-2.453-3.37559l9.13225-57.69563a2.95058,2.95058,0,0,1,3.37558-2.453l-.88326-.1398a4.73876,4.73876,0,0,1,3.93965,5.42134l-8.57313,54.16324A4.73876,4.73876,0,0,1,666.64083,397.88677Z" transform="translate(-113.99736 -153.203)" fill="#2f2e41"/><path d="M671.36188,333.88793h1.35578a0,0,0,0,1,0,0V398.203a0,0,0,0,1,0,0h-1.35578a1.74373,1.74373,0,0,1-1.74373-1.74373V335.63166A1.74373,1.74373,0,0,1,671.36188,333.88793Z" transform="matrix(0.9877, 0.15634, -0.15634, 0.9877, -48.5183, -253.63011)" fill="#6c63ff"/><rect x="675.72265" y="342.67691" width="0.59606" height="5.24533" rx="0.16767" transform="translate(-51.69872 -254.64833) rotate(8.99473)" fill="#464353"/><path d="M699.26986,386.78924c1.38063-3.47754,2.78366-7.07411,2.68935-10.81451a21.79051,21.79051,0,0,0-3.00095-9.59969,49.06472,49.06472,0,0,0-7.82873-10.74717c-3.67349-3.82124-8.97916-7.23355-13.988-5.49916-3.97749,1.37727-6.24459,5.51779-7.71594,9.46146a11.89153,11.89153,0,0,0-1.0036,6.15482c.48768,2.71516,2.58476,4.7994,4.10412,7.10191,2.38215,3.61,3.40276,7.92328,4.38131,12.13629l2.45433,10.56674,4.21566,18.14991c-.11109-.47827,7.82907-7.9987,8.77168-9.59972C695.3856,398.94268,697.05955,392.35663,699.26986,386.78924Z" transform="translate(-113.99736 -153.203)" fill="#ffb9b9"/><path d="M721.81437,406.71942l5.98853,12.45451a29.92589,29.92589,0,0,1,3.7756,16.841l.35548,37.35964c.04751,4.99241.08579,10.06012-1.22851,14.87665a11.91362,11.91362,0,0,1-2.06531,4.44215,13.885,13.885,0,0,1-3.54186,2.85312c-11.33379,7.08154-26.03039,11.10647-38.00489,5.17228a52.59375,52.59375,0,0,1-7.79174-5.08634c-4.77239-3.53419-9.6152-7.13733-13.18543-11.88281-3.73661-4.96665,13.44523-23.86235,10.93142-29.54659-4.50334-10.18295-2.01056-34.33281-9-43-1.01694-1.261,8.22783-.12548,8.19109-1.74506-.0743-3.27466,7.7796-8.00906,10.80891-9.25494,5.17533-2.12848,11.13367-6.47153,12-12,11.00529,14.432-19.897,58.03877-2.53068,63.31241a1.7919,1.7919,0,0,0,2.75627-1.53161c.98551-4.12465,1.33417-8.37187,2.05533-12.55086a71.48894,71.48894,0,0,1,7.54185-21.74986C710.927,411.87327,717.58727,397.9282,721.81437,406.71942Z" transform="translate(-113.99736 -153.203)" fill="#2f2e41"/><path d="M703.24839,435.28413c-.88234,2.3728-.081,4.99694.599,7.43544a74.91773,74.91773,0,0,1,2.73038,21.73833.79122.79122,0,0,1-.92533.94835c-2.88884.177-6.19612.19568-8.15607-1.93394" transform="translate(-113.99736 -153.203)" opacity="0.1"/><path d="M239.04766,710.203h-83l-14.43774-49.21956A20.11781,20.11781,0,0,1,160.91434,635.203h72.60879a20.1178,20.1178,0,0,1,19.37272,25.54217Z" transform="translate(-113.99736 -153.203)" fill="#3f3d56"/><path d="M281.04766,340.404a13,13,0,1,1,13-13A13.01443,13.01443,0,0,1,281.04766,340.404Zm0-24a11,11,0,1,0,11,11A11.01245,11.01245,0,0,0,281.04766,316.404Z" transform="translate(-113.99736 -153.203)" fill="#3f3d56"/><path d="M755.04766,281.404a13,13,0,1,1,13-13A13.01443,13.01443,0,0,1,755.04766,281.404Zm0-24a11,11,0,1,0,11,11A11.01245,11.01245,0,0,0,755.04766,257.404Z" transform="translate(-113.99736 -153.203)" fill="#3f3d56"/><path d="M542.04766,187.203h-26v-26h26Zm-24-2h22v-22h-22Z" transform="translate(-113.99736 -153.203)" fill="#3f3d56"/></svg>